<?xml version="1.0" encoding="utf-8"?>
<!-- Generator: Adobe Illustrator 25.0.0, SVG Export Plug-In . SVG Version: 6.00 Build 0)  -->
<svg version="1.1" id="Layer_1" xmlns="http://www.w3.org/2000/svg" xmlns:xlink="http://www.w3.org/1999/xlink" x="0px" y="0px"
	 viewBox="0 0 450 77" style="enable-background:new 0 0 450 77;" xml:space="preserve">
<style type="text/css">
	.st0{fill-rule:evenodd;clip-rule:evenodd;fill:#E9D94D;}
	.st1{fill-rule:evenodd;clip-rule:evenodd;fill:#E71E24;}
	.st2{fill-rule:evenodd;clip-rule:evenodd;fill:#FEFEFE;}
	.st3{fill:#E9D94D;}
	.st4{fill:#E71E24;}
</style>
<g id="BACKGROUND">
</g>
<g id="DESIGNED_BY_FREEPIK">
</g>
<g>
	<g>
		<path class="st0" d="M38.1,76.1c20.7,0,37.5-16.8,37.5-37.5S58.8,1.1,38.1,1.1S0.6,18,0.6,38.6S17.5,76.1,38.1,76.1L38.1,76.1z"/>
		<path class="st1" d="M38.1,74.4c19.7,0,35.7-16,35.7-35.7c0-19.7-16-35.7-35.7-35.7C18.4,2.9,2.4,19,2.4,38.6
			C2.4,58.3,18.4,74.4,38.1,74.4L38.1,74.4z"/>
		<path class="st0" d="M38.1,73.8c19.4,0,35.2-15.8,35.2-35.2c0-19.4-15.8-35.2-35.2-35.2C18.7,3.5,3,19.3,3,38.6
			C3,58,18.7,73.8,38.1,73.8L38.1,73.8z"/>
		<path class="st1" d="M38.1,65.6C52.9,65.6,65,53.5,65,38.6c0-14.8-12.1-26.9-26.9-26.9c-14.8,0-26.9,12.1-26.9,26.9
			C11.2,53.5,23.3,65.6,38.1,65.6L38.1,65.6z"/>
		<path class="st2" d="M38.1,65.2c14.6,0,26.5-11.9,26.5-26.5c0-14.6-11.9-26.5-26.5-26.5c-14.6,0-26.5,11.9-26.5,26.5
			C11.6,53.3,23.5,65.2,38.1,65.2L38.1,65.2z"/>
		<polygon class="st0" points="38.1,13.5 39.3,17 43,17 40,19.2 41.1,22.7 38.1,20.5 35.1,22.7 36.3,19.2 33.2,17 37,17 		"/>
		<path class="st2" d="M23.7,42.4l3.2,0l0.1-6.7c-0.7,0.7-1.3,2.4-1.7,3.4C24.8,40,23.9,41.6,23.7,42.4L23.7,42.4z"/>
		<path class="st2" d="M27.3,42.4l3.2,0c-0.8-2.1-2.1-4.6-3.2-6.7L27.3,42.4z"/>
		<path class="st2" d="M49,42.4l3.2,0c-1-2.2-2.1-4.5-3.2-6.7L49,42.4z"/>
		<polygon class="st2" points="45.4,42.4 48.7,42.4 48.8,35.7 		"/>
		<path class="st1" d="M7.2,28.7L7.2,28.7c0.1,0.2,0.1,0.3,0.2,0.5c0.1,0.1,0.3,0.3,0.6,0.5l2.5,2.1l0,0.1l-3.4,0.4
			c-0.4,0.1-0.7,0.1-0.7,0.1c-0.1,0-0.2,0.1-0.2,0.3l-0.1,0l0.5-1.8l0.1,0l0,0.1c0,0.2-0.1,0.3,0,0.3c0,0.1,0.1,0.1,0.1,0.1
			c0,0,0.1,0,0.1,0c0.1,0,0.2,0,0.4,0l2.1-0.3l-1.5-1.2c-0.2-0.1-0.3-0.2-0.4-0.3c-0.1,0-0.1-0.1-0.2-0.1c-0.1,0-0.1,0-0.2,0
			c-0.1,0-0.1,0-0.1,0.1C7,29.7,7,29.8,6.9,29.9l-0.1,0L7.2,28.7z M10.9,26.9l-0.6,1.3l0.3,0.3c0.1,0.1,0.2,0.2,0.3,0.2
			c0.1,0,0.2,0,0.3,0c0,0,0.1-0.1,0.2-0.3l0.1,0L11,29.6l-0.1,0c0-0.1,0-0.3,0-0.4c0-0.1-0.2-0.3-0.4-0.6L8.1,26l0-0.1l3.5,0
			c0.3,0,0.6,0,0.7-0.1c0.1,0,0.2-0.1,0.2-0.2l0.1,0l-0.8,1.7l-0.1,0l0-0.1c0.1-0.1,0.1-0.2,0.1-0.3c0-0.1,0-0.1-0.1-0.1
			c0,0-0.1,0-0.1,0c0,0-0.1,0-0.2,0L10.9,26.9z M10.7,26.9l-1.5,0l1,1.1L10.7,26.9z M7.3,24.9l0.1-0.2c0.2,0.1,0.4,0.3,0.5,0.5
			c0.1,0.2,0.1,0.4,0,0.7c-0.1,0.2-0.3,0.3-0.5,0.4c-0.2,0.1-0.5,0.1-0.7,0l0.1-0.2c0.1,0,0.2,0,0.3-0.1c0.1-0.1,0.2-0.2,0.3-0.4
			c0.1-0.2,0.1-0.3,0.1-0.5C7.5,25.1,7.4,25,7.3,24.9L7.3,24.9z M10.1,22.3l3.1-0.3l-1.4-0.9c-0.2-0.1-0.4-0.2-0.5-0.2
			c-0.1,0-0.3,0.1-0.4,0.3l-0.1-0.1l0.7-1.1l0.1,0.1c-0.1,0.2-0.1,0.3-0.1,0.3c0,0.1,0,0.1,0.1,0.2c0,0.1,0.2,0.2,0.3,0.3l2.8,1.8
			l0,0.1l-4.2,0.5l2.1,1.4c0.2,0.1,0.3,0.2,0.5,0.1c0.1,0,0.2-0.1,0.3-0.2l0.1-0.1l0.1,0.1l-0.8,1.2l-0.1-0.1
			c0.1-0.2,0.2-0.3,0.1-0.5c0-0.1-0.1-0.2-0.3-0.3l-2.4-1.5l-0.1,0c-0.1,0-0.2,0-0.3,0.1c-0.1,0-0.1,0.1-0.2,0.2l-0.1-0.1L10.1,22.3
			z M15.7,18.5l0.8,0.8c0.2,0.2,0.3,0.2,0.3,0.3c0.1,0,0.1,0,0.2,0c0.1,0,0.2-0.1,0.3-0.2l0.1,0.1L16,20.8l-0.1-0.1
			c0.1-0.1,0.2-0.2,0.2-0.3c0-0.1,0-0.1,0-0.2c0-0.1-0.1-0.2-0.3-0.3L14,18.1c-0.2-0.2-0.3-0.2-0.3-0.3c-0.1,0-0.1,0-0.2,0
			c-0.1,0-0.2,0.1-0.3,0.2L13.1,18l1.2-1.2c0.4-0.4,0.7-0.6,1.1-0.7c0.3,0,0.6,0,0.8,0.3c0.2,0.2,0.3,0.4,0.3,0.6
			c0,0.2,0,0.5-0.2,0.7C16.2,17.9,16,18.1,15.7,18.5L15.7,18.5z M14.3,17.1l1.2,1.2c0,0,0.1-0.1,0.1-0.1c0.2-0.2,0.2-0.4,0.2-0.5
			c0-0.2-0.1-0.4-0.3-0.6c-0.2-0.2-0.4-0.3-0.6-0.3C14.7,16.8,14.5,16.9,14.3,17.1L14.3,17.1z M18.4,15.7l0.8,1
			c0.1,0.2,0.2,0.3,0.3,0.3c0,0,0.1,0,0.2,0c0.1,0,0.2,0,0.2-0.1l0.1-0.1l0.1,0.1l-1.6,1.3L18.3,18l0.1-0.1c0.1-0.1,0.2-0.1,0.2-0.2
			c0-0.1,0-0.1,0-0.2c0,0-0.1-0.2-0.2-0.3l-1.6-2.1c-0.1-0.2-0.2-0.3-0.3-0.3c0,0-0.1,0-0.2,0c-0.1,0-0.2,0-0.2,0.1L16,15L16,15
			l1.6-1.3l0.1,0.1l-0.1,0.1c-0.1,0.1-0.2,0.1-0.2,0.2c0,0.1,0,0.1,0,0.2c0,0,0.1,0.2,0.2,0.3l0.7,0.9l1.1-0.9l-0.7-0.9
			c-0.1-0.2-0.2-0.3-0.3-0.3c0,0-0.1,0-0.2,0c-0.1,0-0.2,0-0.2,0.1l-0.1,0.1l-0.1-0.1l1.6-1.3l0.1,0.1l-0.1,0.1
			c-0.1,0.1-0.2,0.1-0.2,0.2c0,0,0,0.1,0,0.2c0,0,0.1,0.2,0.2,0.3l1.6,2c0.1,0.2,0.2,0.3,0.3,0.3c0,0,0.1,0,0.2,0
			c0.1,0,0.2,0,0.2-0.1l0.1-0.1l0.1,0.1l-1.6,1.3l-0.1-0.1l0.1-0.1c0.1-0.1,0.2-0.1,0.2-0.2c0-0.1,0-0.1,0-0.2c0,0-0.1-0.2-0.2-0.3
			l-0.8-1L18.4,15.7z M21.9,10.7c0.5-0.3,1.1-0.4,1.6-0.3c0.5,0.1,0.9,0.5,1.2,1c0.2,0.4,0.3,0.9,0.3,1.4c-0.1,0.6-0.4,1.1-1,1.5
			c-0.6,0.4-1.2,0.4-1.8,0.2c-0.5-0.2-0.8-0.5-1.1-0.9c-0.3-0.5-0.4-1-0.2-1.6C21.1,11.3,21.4,10.9,21.9,10.7L21.9,10.7z M22.1,10.8
			c-0.3,0.2-0.5,0.5-0.4,0.9c0,0.3,0.2,0.8,0.5,1.2c0.3,0.6,0.7,1,1,1.1c0.3,0.1,0.5,0.1,0.8-0.1c0.2-0.1,0.3-0.2,0.4-0.4
			c0.1-0.2,0.1-0.4,0.1-0.7c-0.1-0.3-0.2-0.6-0.4-1c-0.3-0.5-0.5-0.8-0.7-0.9c-0.2-0.2-0.4-0.3-0.6-0.3
			C22.4,10.7,22.2,10.7,22.1,10.8L22.1,10.8z M20.6,9.9l0.8-0.4l0.8,0.7L22,10.3L20.6,9.9z M25.9,8.8l2.7,1.6L28,8.8
			c-0.1-0.2-0.2-0.4-0.3-0.4c-0.1-0.1-0.3-0.1-0.5,0l0-0.1l1.2-0.5l0,0.1C28.3,8,28.2,8,28.2,8.1c0,0-0.1,0.1-0.1,0.2
			c0,0.1,0,0.2,0.1,0.4l1.2,3.1l-0.1,0l-3.7-2.1l0.9,2.3c0.1,0.2,0.2,0.3,0.3,0.4c0.1,0,0.3,0,0.4,0l0.1,0l0,0.1L26.1,13l0-0.1
			c0.2-0.1,0.3-0.2,0.4-0.3c0-0.1,0-0.3,0-0.5l-1-2.6l-0.1-0.1c-0.1-0.1-0.2-0.1-0.3-0.1c-0.1,0-0.2,0-0.3,0l0-0.1L25.9,8.8z
			 M33.1,6.6L33.4,8l-0.1,0c-0.2-0.3-0.5-0.6-0.8-0.7c-0.3-0.1-0.6-0.2-0.9-0.1c-0.3,0.1-0.5,0.2-0.7,0.4c-0.2,0.2-0.2,0.5-0.3,0.8
			c0,0.3,0,0.6,0.1,0.9c0.1,0.4,0.2,0.7,0.4,0.9c0.2,0.3,0.3,0.4,0.6,0.5c0.2,0.1,0.5,0.1,0.7,0c0.1,0,0.2-0.1,0.3-0.1
			c0.1,0,0.2-0.1,0.3-0.2l-0.2-0.8c0-0.2-0.1-0.3-0.1-0.3c0,0-0.1-0.1-0.2-0.1c-0.1,0-0.2,0-0.2,0l-0.1,0l0-0.1l1.9-0.4l0,0.1
			C34,9,33.9,9,33.8,9.1c0,0-0.1,0.1-0.1,0.2c0,0,0,0.1,0,0.3l0.2,0.8c-0.2,0.2-0.5,0.3-0.7,0.4C33,10.9,32.7,11,32.5,11
			c-0.4,0.1-0.7,0.1-0.9,0.1c-0.3,0-0.5-0.1-0.7-0.2c-0.2-0.1-0.4-0.3-0.6-0.4c-0.2-0.2-0.3-0.5-0.4-0.8c-0.1-0.6,0-1.1,0.3-1.6
			c0.3-0.5,0.8-0.8,1.4-1c0.2,0,0.4-0.1,0.5-0.1c0.1,0,0.2,0,0.4,0c0.2,0,0.3,0,0.4,0c0.1,0,0.1,0,0.1-0.1C33,6.9,33,6.8,33.1,6.6
			L33.1,6.6z M40.1,6.4l0,1.4l-0.1,0c-0.1-0.4-0.2-0.6-0.5-0.8c-0.2-0.2-0.5-0.3-0.8-0.3c-0.2,0-0.5,0.1-0.7,0.2
			c-0.2,0.1-0.4,0.3-0.5,0.5c-0.1,0.3-0.2,0.6-0.2,1c0,0.3,0,0.7,0.1,1c0.1,0.3,0.2,0.5,0.4,0.7c0.2,0.2,0.4,0.2,0.7,0.2
			c0.2,0,0.5,0,0.7-0.1c0.2-0.1,0.4-0.3,0.7-0.5l0,0.3c-0.2,0.2-0.5,0.4-0.7,0.5c-0.2,0.1-0.5,0.1-0.8,0.1c-0.4,0-0.8-0.1-1.1-0.3
			C37,10,36.7,9.8,36.6,9.5c-0.2-0.3-0.2-0.7-0.2-1c0-0.4,0.1-0.7,0.3-1.1c0.2-0.3,0.5-0.6,0.8-0.8c0.3-0.2,0.7-0.3,1.1-0.3
			c0.3,0,0.6,0.1,0.9,0.2c0.2,0.1,0.3,0.1,0.3,0.1c0.1,0,0.1,0,0.2-0.1c0,0,0.1-0.1,0.1-0.2H40.1z M43.3,6.8
			c0.6,0.1,1.1,0.4,1.4,0.8c0.3,0.5,0.4,1,0.3,1.5c-0.1,0.5-0.3,0.9-0.7,1.2c-0.5,0.4-1.1,0.6-1.8,0.5s-1.2-0.5-1.5-1
			c-0.2-0.4-0.3-0.9-0.2-1.4c0.1-0.6,0.4-1,0.9-1.3C42.2,6.8,42.8,6.7,43.3,6.8L43.3,6.8z M43.3,7c-0.4-0.1-0.7,0.1-0.9,0.4
			c-0.2,0.3-0.4,0.7-0.5,1.2c-0.1,0.7-0.1,1.2,0.1,1.5c0.1,0.3,0.3,0.4,0.6,0.5c0.2,0,0.4,0,0.5-0.1c0.2-0.1,0.4-0.3,0.5-0.5
			c0.1-0.2,0.2-0.6,0.3-1c0.1-0.5,0.1-0.9,0.1-1.2c0-0.3-0.1-0.5-0.3-0.6C43.7,7.1,43.5,7,43.3,7L43.3,7z M43.9,5.5l0.4,1.2l-0.2,0
			l-0.6-0.7l-0.8,0.4l-0.2,0l0.8-1L43.9,5.5z M47.6,7.9l1.1,2.9l0.5-1.6c0.1-0.2,0.1-0.4,0.1-0.5c0-0.1-0.2-0.2-0.4-0.3l0-0.1
			l1.2,0.4l0,0.1c-0.2,0-0.3,0-0.3,0c-0.1,0-0.1,0.1-0.2,0.1c-0.1,0.1-0.1,0.2-0.2,0.4l-1.1,3.1l-0.1,0l-1.5-4L46,10.8
			c-0.1,0.2-0.1,0.4,0,0.5c0.1,0.1,0.2,0.2,0.3,0.2l0.1,0l0,0.1L45,11.2l0-0.1c0.2,0.1,0.4,0.1,0.5,0c0.1-0.1,0.2-0.2,0.3-0.4
			L46.7,8l0-0.1c0-0.1-0.1-0.2-0.1-0.3c0-0.1-0.1-0.1-0.2-0.1l0-0.1L47.6,7.9z M54.5,10.8L53.9,12l-0.1,0c0.1-0.4,0-0.7-0.1-1
			c-0.1-0.3-0.3-0.5-0.6-0.7c-0.3-0.1-0.5-0.2-0.8-0.1c-0.3,0.1-0.5,0.2-0.7,0.4c-0.2,0.2-0.4,0.5-0.5,0.8c-0.2,0.3-0.3,0.7-0.3,0.9
			c-0.1,0.3,0,0.5,0.1,0.8c0.1,0.2,0.3,0.4,0.5,0.5c0.1,0,0.2,0.1,0.3,0.1c0.1,0,0.2,0,0.3,0.1l0.4-0.7c0.1-0.1,0.1-0.2,0.1-0.3
			c0,0,0-0.1-0.1-0.2c0-0.1-0.1-0.1-0.2-0.2l-0.1,0l0-0.1l1.7,0.9l0,0.1c-0.1-0.1-0.2-0.1-0.3-0.1c-0.1,0-0.1,0-0.2,0.1
			c0,0-0.1,0.1-0.2,0.2l-0.4,0.7c-0.3,0-0.5-0.1-0.8-0.1c-0.3-0.1-0.5-0.2-0.8-0.3c-0.3-0.2-0.6-0.4-0.8-0.6
			c-0.2-0.2-0.3-0.4-0.4-0.7c-0.1-0.2-0.1-0.5-0.1-0.7c0-0.3,0.1-0.6,0.2-0.9c0.3-0.5,0.7-0.9,1.2-1.1c0.6-0.2,1.1-0.1,1.7,0.2
			c0.2,0.1,0.3,0.2,0.5,0.3c0.1,0,0.2,0.2,0.3,0.3c0.1,0.2,0.2,0.2,0.3,0.2c0,0,0.1,0,0.2,0C54.3,10.8,54.4,10.8,54.5,10.8
			L54.5,10.8z M60,14.8l-0.9,1.1l-0.1-0.1c0.2-0.3,0.2-0.7,0.1-0.9c-0.1-0.3-0.2-0.5-0.4-0.7c-0.2-0.2-0.4-0.2-0.7-0.3
			c-0.2,0-0.5,0-0.7,0.2c-0.3,0.2-0.5,0.4-0.7,0.7c-0.2,0.3-0.4,0.6-0.5,0.8c-0.1,0.3-0.1,0.5-0.1,0.8c0.1,0.2,0.2,0.4,0.4,0.6
			c0.2,0.2,0.4,0.2,0.6,0.3c0.2,0,0.5,0,0.9,0l-0.2,0.3c-0.3,0-0.6,0-0.9,0c-0.3-0.1-0.5-0.2-0.8-0.4c-0.3-0.3-0.6-0.6-0.7-0.9
			c-0.2-0.3-0.2-0.7-0.1-1c0.1-0.4,0.2-0.7,0.4-1c0.2-0.3,0.5-0.5,0.9-0.7c0.4-0.1,0.7-0.2,1.1-0.1c0.4,0.1,0.7,0.2,1,0.4
			c0.2,0.2,0.4,0.4,0.6,0.7c0.1,0.2,0.2,0.3,0.2,0.3c0,0,0.1,0.1,0.2,0C59.8,14.8,59.8,14.8,60,14.8L60,14.8z M60.3,18.1l-0.9,0.8
			c-0.2,0.1-0.2,0.2-0.3,0.3c0,0,0,0.1,0,0.2c0,0.1,0.1,0.2,0.1,0.2l0.1,0.1l-0.1,0.1l-1.3-1.6l0.1-0.1l0.1,0.1
			c0.1,0.1,0.2,0.1,0.2,0.2c0.1,0,0.1,0,0.2,0c0,0,0.2-0.1,0.3-0.2l2-1.7c0.2-0.1,0.2-0.2,0.3-0.3c0-0.1,0-0.1,0-0.2
			c0-0.1-0.1-0.2-0.1-0.2l-0.1-0.1l0.1-0.1l1.3,1.6l-0.1,0.1L62,17.2C62,17.1,61.9,17,61.8,17c-0.1,0-0.1,0-0.2,0
			c-0.1,0-0.2,0.1-0.3,0.2L60.5,18l0.9,1.1l0.9-0.7c0.2-0.1,0.2-0.2,0.3-0.3c0,0,0-0.1,0-0.2c0-0.1-0.1-0.2-0.1-0.2l-0.1-0.1
			l0.1-0.1l1.3,1.6L63.6,19l-0.1-0.1c-0.1-0.1-0.2-0.1-0.2-0.2c-0.1,0-0.1,0-0.2,0c0,0-0.1,0.1-0.3,0.2l-2,1.7
			c-0.2,0.1-0.2,0.2-0.3,0.3c0,0,0,0.1,0,0.2c0,0.1,0.1,0.2,0.1,0.2l0.1,0.1l-0.1,0.1L59.4,20l0.1-0.1l0.1,0.1
			c0.1,0.1,0.2,0.1,0.2,0.2c0.1,0,0.1,0,0.2,0c0,0,0.2-0.1,0.3-0.2l0.9-0.8L60.3,18.1z M66.3,23c-0.1-0.2-0.3-0.3-0.5-0.2
			c-0.1,0-0.2,0.1-0.3,0.2l-1.3,0.8c-0.4,0.3-0.7,0.4-0.9,0.5c-0.2,0.1-0.5,0-0.7-0.1c-0.3-0.1-0.5-0.3-0.7-0.7
			c-0.2-0.3-0.3-0.5-0.3-0.7c0-0.3,0-0.5,0.1-0.7c0.1-0.2,0.3-0.4,0.6-0.6l1.6-1c0.2-0.1,0.3-0.2,0.3-0.3c0,0,0-0.1,0-0.2
			c0-0.1-0.1-0.2-0.1-0.3l0.1-0.1l1.1,1.7l-0.1,0.1l-0.1-0.1c-0.1-0.2-0.3-0.3-0.4-0.3c-0.1,0-0.2,0.1-0.4,0.2l-1.6,1
			c-0.3,0.2-0.5,0.3-0.5,0.4c-0.1,0.1-0.1,0.2-0.1,0.4c0,0.1,0.1,0.3,0.2,0.5c0.2,0.4,0.5,0.5,0.9,0.5c0.2,0,0.5-0.2,0.8-0.4
			l1.4-0.9c0.2-0.2,0.4-0.3,0.3-0.5c0-0.1-0.1-0.2-0.1-0.3l0.1-0.1l0.7,1.1c0.1,0.1,0.1,0.1,0.2,0.2c0,0,0,0,0.1,0c0,0,0,0,0,0
			c0,0,0,0,0-0.1c0-0.1,0-0.1,0-0.2c0-0.1,0.1-0.1,0.2-0.2c0.1,0,0.2,0,0.2,0c0.1,0,0.1,0.1,0.2,0.2c0,0.2,0,0.3-0.2,0.4
			c0,0-0.1,0-0.2,0.1c-0.1,0-0.3,0-0.4-0.1C66.5,23.4,66.4,23.2,66.3,23L66.3,23z M67,21.3L65.6,21l-0.1-0.2l1-0.3L67,21.3z
			 M67.6,25.4l-1.4,2.8l1.5-0.7c0.2-0.1,0.3-0.2,0.4-0.3c0.1-0.1,0-0.3,0-0.5l0.1,0l0.5,1.2l-0.1,0c-0.1-0.1-0.2-0.2-0.2-0.3
			c-0.1,0-0.1-0.1-0.2-0.1c-0.1,0-0.2,0-0.4,0.1l-3,1.4l0-0.1l1.9-3.8l-2.3,1c-0.2,0.1-0.3,0.2-0.4,0.3c0,0.1,0,0.3,0,0.4l0,0.1
			L64,27l-0.6-1.3l0.1,0c0.1,0.2,0.2,0.3,0.3,0.4c0.1,0,0.3,0,0.5-0.1l2.5-1.2l0.1-0.1c0.1-0.1,0.1-0.2,0.1-0.3c0-0.1,0-0.2-0.1-0.3
			l0.1,0L67.6,25.4z M70,32.7L68.7,33l0-0.1c0.3-0.2,0.6-0.5,0.7-0.8c0.1-0.3,0.2-0.6,0.1-0.9c-0.1-0.3-0.2-0.5-0.4-0.7
			c-0.2-0.2-0.5-0.2-0.8-0.3c-0.3,0-0.6,0-0.9,0.1c-0.4,0.1-0.7,0.2-0.9,0.3c-0.3,0.2-0.4,0.3-0.5,0.6c-0.1,0.2-0.1,0.5,0,0.7
			c0,0.1,0,0.2,0.1,0.3c0,0.1,0.1,0.2,0.2,0.3l0.8-0.2c0.2,0,0.3-0.1,0.3-0.1c0,0,0.1-0.1,0.1-0.2c0-0.1,0-0.2,0-0.2l0-0.1l0.1,0
			l0.4,1.9l-0.1,0c0-0.1-0.1-0.2-0.1-0.3c0,0-0.1-0.1-0.2-0.1c0,0-0.1,0-0.3,0l-0.8,0.2c-0.2-0.2-0.3-0.5-0.4-0.7
			c-0.1-0.3-0.2-0.5-0.3-0.8c-0.1-0.4-0.1-0.7-0.1-0.9c0-0.3,0.1-0.5,0.2-0.7c0.1-0.2,0.3-0.4,0.4-0.6c0.2-0.2,0.5-0.3,0.8-0.4
			c0.6-0.1,1.1,0,1.6,0.3c0.5,0.3,0.8,0.8,1,1.4c0,0.2,0.1,0.4,0.1,0.5c0,0.1,0,0.2,0,0.4c0,0.2,0,0.3,0,0.3c0,0.1,0,0.1,0.1,0.1
			C69.8,32.5,69.9,32.6,70,32.7L70,32.7z"/>
		<polygon class="st1" points="6.7,36.2 7.3,38.1 9.2,38.1 7.7,39.2 8.3,41.1 6.7,39.9 5.1,41.1 5.7,39.2 4.1,38.1 6.1,38.1 		"/>
		<polygon class="st1" points="69.6,36.2 70.2,38.1 72.1,38.1 70.5,39.2 71.1,41.1 69.6,39.9 68,41.1 68.6,39.2 67,38.1 69,38.1 		
			"/>
		<path class="st1" d="M12.5,53.5l-1,2.8l1.4-0.8c0.2-0.1,0.3-0.2,0.3-0.3c0-0.1,0-0.3-0.1-0.5l0.1,0l0.7,1.1l-0.1,0
			c-0.1-0.1-0.2-0.2-0.2-0.2c-0.1,0-0.1,0-0.2,0c-0.1,0-0.2,0.1-0.3,0.2l-2.7,1.6l0-0.1l1.4-3.9l-2.1,1.2c-0.2,0.1-0.3,0.2-0.3,0.4
			c0,0.1,0,0.2,0.1,0.4l0,0.1l-0.1,0l-0.7-1.2l0.1-0.1c0.1,0.2,0.2,0.3,0.3,0.3c0.1,0,0.3,0,0.4-0.1l2.3-1.4l0-0.1
			c0-0.1,0.1-0.2,0.1-0.3c0-0.1,0-0.2-0.1-0.3l0.1,0L12.5,53.5z M16.6,59l-1,0.9l-0.1-0.1c0.2-0.3,0.3-0.7,0.3-1
			c0-0.3-0.1-0.6-0.3-0.8c-0.2-0.2-0.4-0.4-0.6-0.4c-0.2,0-0.5,0-0.8,0.1c-0.3,0.1-0.5,0.3-0.7,0.5c-0.3,0.2-0.5,0.5-0.7,0.7
			c-0.2,0.2-0.2,0.5-0.2,0.7c0,0.2,0.1,0.5,0.3,0.7c0.1,0.1,0.1,0.1,0.2,0.2c0.1,0.1,0.2,0.1,0.3,0.2l0.6-0.5
			c0.1-0.1,0.2-0.2,0.2-0.2c0,0,0-0.1,0-0.2c0-0.1,0-0.1-0.1-0.2l-0.1-0.1l0.1-0.1l1.2,1.5L15,60.9c-0.1-0.1-0.2-0.2-0.2-0.2
			c-0.1,0-0.1,0-0.2,0c0,0-0.1,0.1-0.2,0.1l-0.6,0.5c-0.2-0.1-0.5-0.3-0.7-0.4c-0.2-0.2-0.4-0.4-0.6-0.6c-0.2-0.3-0.4-0.5-0.5-0.8
			c-0.1-0.3-0.1-0.5-0.1-0.7c0-0.2,0-0.5,0.1-0.7c0.1-0.3,0.3-0.5,0.5-0.7c0.4-0.4,0.9-0.5,1.5-0.4c0.6,0.1,1,0.3,1.4,0.8
			c0.1,0.2,0.2,0.3,0.3,0.4c0,0.1,0.1,0.2,0.2,0.4c0.1,0.2,0.1,0.3,0.1,0.3c0,0,0.1,0.1,0.1,0.1C16.3,59,16.4,59,16.6,59L16.6,59z
			 M16.9,59.5l1.5,1.3l-0.1,0.1l-0.1-0.1c-0.1-0.1-0.2-0.2-0.3-0.2c-0.1,0-0.1,0-0.2,0c-0.1,0-0.2,0.1-0.3,0.3l-1.2,1.4
			c-0.2,0.3-0.3,0.5-0.4,0.6c0,0.1,0,0.2,0,0.4c0,0.1,0.1,0.3,0.3,0.4c0.2,0.1,0.3,0.2,0.5,0.2c0.2,0,0.3,0,0.5-0.1
			c0.2-0.1,0.4-0.3,0.6-0.6l1-1.2c0.1-0.1,0.2-0.2,0.2-0.3c0-0.1,0-0.2,0-0.2c0-0.1-0.1-0.2-0.2-0.3l0.1-0.1l1,0.9l-0.1,0.1
			l-0.1-0.1C19.7,62,19.6,62,19.6,62c-0.1,0-0.2,0-0.2,0c-0.1,0-0.1,0.1-0.2,0.2l-0.9,1.1c-0.3,0.3-0.5,0.6-0.7,0.7
			c-0.2,0.1-0.4,0.2-0.7,0.1c-0.3,0-0.6-0.2-0.9-0.4c-0.3-0.2-0.4-0.4-0.5-0.6c-0.1-0.2-0.2-0.5-0.1-0.7c0-0.2,0.2-0.4,0.4-0.7
			l1.2-1.4C17,60.2,17,60.1,17,60c0-0.1,0-0.1,0-0.2C17,59.8,16.9,59.7,16.9,59.5L16.9,59.5z M23.6,64.4L23.6,64.4
			c-0.2,0-0.3,0-0.4,0c-0.1,0-0.4,0.1-0.7,0.3l-1.5,0.7l-0.5,0.8c-0.1,0.2-0.2,0.3-0.2,0.3c0,0.1,0,0.1,0,0.2c0,0.1,0.1,0.1,0.2,0.2
			l0.2,0.1l0,0.1l-1.8-1.2l0.1-0.1l0.2,0.1c0.1,0.1,0.2,0.1,0.3,0.1c0.1,0,0.1,0,0.2,0c0,0,0.1-0.1,0.2-0.3l0.4-0.6l0.1-1.9
			c0-0.4,0-0.6,0-0.7c0-0.1-0.1-0.2-0.2-0.2l0-0.1l1.6,1l-0.1,0.1l-0.1,0c-0.1-0.1-0.2-0.1-0.2-0.1c-0.1,0-0.1,0-0.1,0
			c0,0.1-0.1,0.2-0.1,0.6l-0.1,1.4l1.2-0.6c0.3-0.1,0.5-0.3,0.5-0.3c0,0,0-0.1,0-0.1c0-0.1-0.1-0.2-0.3-0.3l0-0.1L23.6,64.4z
			 M25.1,65.3l-0.7,1.4l0.1,0c0.2,0.1,0.4,0.1,0.6,0c0.2-0.1,0.3-0.3,0.5-0.5l0.1,0l-0.8,1.8l-0.1,0c0.1-0.2,0.1-0.4,0.1-0.5
			c0-0.2,0-0.3-0.1-0.4c-0.1-0.1-0.2-0.2-0.4-0.2l-0.4,1c-0.1,0.2-0.1,0.3-0.1,0.4c0,0,0,0.1,0,0.1c0,0,0.1,0.1,0.2,0.1l0.2,0.1
			c0.3,0.2,0.6,0.2,0.9,0.1c0.3-0.1,0.5-0.2,0.7-0.5l0.1,0l-0.7,1l-3-1.4l0-0.1l0.1,0.1c0.1,0,0.2,0.1,0.3,0.1c0.1,0,0.1,0,0.2-0.1
			c0,0,0.1-0.1,0.2-0.3l1.1-2.3c0.1-0.2,0.1-0.3,0.1-0.3c0-0.1,0-0.1,0-0.2c0-0.1-0.1-0.1-0.2-0.2l-0.1-0.1l0-0.1l2.9,1.4l-0.5,1
			l-0.1,0c0.1-0.3,0.1-0.5,0-0.6c0-0.2-0.1-0.3-0.3-0.4c-0.1-0.1-0.3-0.2-0.5-0.3L25.1,65.3z M25.7,64.5l0.5,0.2l0.2,0.6l-0.1-0.1
			l-0.5-0.4l-0.6-0.1l-0.1-0.1L25.7,64.5z M26.7,64.6c-0.1,0.1-0.3,0.1-0.5,0c-0.1-0.1-0.3-0.2-0.4-0.3c-0.1-0.1-0.2-0.2-0.2-0.2
			c-0.1,0-0.1,0-0.1,0c0,0-0.1,0-0.1,0.1l-0.1-0.1c0.1-0.1,0.2-0.2,0.3-0.2c0.1,0,0.2,0,0.4,0.1c0.1,0,0.1,0.1,0.2,0.1
			c0,0,0.1,0.1,0.2,0.2c0.1,0.1,0.2,0.2,0.2,0.2c0,0,0.1,0,0.1,0c0,0,0.1,0,0.2-0.1l0.1,0.1C26.8,64.5,26.8,64.6,26.7,64.6
			L26.7,64.6z M28.9,66.4l1.1,2.8l0.5-1.6c0.1-0.2,0.1-0.4,0-0.5c-0.1-0.1-0.2-0.2-0.4-0.3l0-0.1l1.2,0.4l0,0.1c-0.2,0-0.3,0-0.3,0
			c-0.1,0-0.1,0.1-0.2,0.1c-0.1,0.1-0.1,0.2-0.2,0.3l-0.9,3l-0.1,0L28.1,67l-0.7,2.3c-0.1,0.2-0.1,0.4,0,0.5
			c0.1,0.1,0.2,0.2,0.3,0.2l0.1,0l0,0.1l-1.3-0.4l0-0.1c0.2,0.1,0.4,0.1,0.5,0s0.2-0.2,0.2-0.4l0.8-2.6l0-0.1c0-0.1-0.1-0.2-0.2-0.3
			c0,0-0.1-0.1-0.2-0.1l0-0.1L28.9,66.4z M36.3,67.9L36.3,67.9C36.2,68,36,68,35.9,68.2c-0.1,0.1-0.2,0.3-0.4,0.6l-1.7,2.7l-0.1,0
			l-1-3.1c-0.1-0.4-0.2-0.6-0.2-0.7c0-0.1-0.1-0.1-0.3-0.2l0-0.1l1.8,0.2l0,0.1l-0.1,0c-0.2,0-0.3,0-0.3,0c0,0-0.1,0.1-0.1,0.1
			c0,0,0,0.1,0,0.1c0,0,0,0.2,0.1,0.4l0.6,2l1-1.6c0.1-0.2,0.2-0.3,0.2-0.4c0-0.1,0-0.1,0.1-0.2c0-0.1,0-0.1,0-0.2
			c0,0-0.1-0.1-0.1-0.1c-0.1,0-0.2-0.1-0.3-0.1l0-0.1L36.3,67.9z M38.7,71.7L38.7,71.7l-2,0l0-0.1l0.1,0c0.1,0,0.2,0,0.3,0
			c0.1,0,0.1-0.1,0.1-0.1c0,0,0-0.2,0-0.4l0.1-2.5c0-0.2,0-0.3,0-0.4c0,0-0.1-0.1-0.1-0.1C37.2,68,37.1,68,37,68l-0.1,0l0-0.1l2,0.1
			v0.1l-0.1,0c-0.1,0-0.2,0-0.3,0c0,0-0.1,0.1-0.1,0.1c0,0,0,0.2-0.1,0.3l-0.1,2.5c0,0.2,0,0.3,0,0.4c0,0,0.1,0.1,0.1,0.1
			c0.1,0,0.1,0.1,0.3,0.1L38.7,71.7z M40.7,68.1l0.1,1.5l0.1,0c0.2,0,0.4-0.1,0.5-0.3c0.1-0.2,0.2-0.4,0.2-0.7l0.1,0l0.1,2l-0.1,0
			c0-0.2-0.1-0.4-0.2-0.5c-0.1-0.1-0.2-0.2-0.3-0.3c-0.1,0-0.2-0.1-0.4,0l0.1,1.1c0,0.2,0,0.3,0.1,0.4c0,0,0.1,0.1,0.1,0.1
			c0,0,0.1,0,0.2,0l0.2,0c0.4,0,0.6-0.1,0.9-0.3c0.2-0.2,0.3-0.4,0.4-0.8l0.1,0l-0.1,1.2l-3.3,0.2l0-0.1l0.1,0c0.1,0,0.2,0,0.3-0.1
			c0,0,0.1-0.1,0.1-0.1c0,0,0-0.2,0-0.4l-0.2-2.5c0-0.2,0-0.3,0-0.3c0-0.1-0.1-0.1-0.1-0.1c-0.1,0-0.2-0.1-0.3-0.1l-0.1,0l0-0.1
			l3.2-0.2l0.1,1.1l-0.1,0c-0.1-0.3-0.2-0.5-0.3-0.6c-0.1-0.1-0.3-0.2-0.4-0.2c-0.1,0-0.3,0-0.6,0L40.7,68.1z M40.8,67.1l0.5,0
			l0.5,0.4l-0.1,0l-0.6-0.1l-0.6,0.2l-0.1,0L40.8,67.1z M41.3,71.9c0.1,0,0.2,0,0.3,0.1c0.1,0.1,0.2,0.2,0.2,0.3
			c0,0.1,0,0.2-0.1,0.3c-0.1,0.1-0.2,0.1-0.3,0.2s-0.2,0-0.3-0.1c-0.1-0.1-0.2-0.2-0.2-0.3c0-0.1,0-0.2,0.1-0.3
			C41,72,41.1,71.9,41.3,71.9L41.3,71.9z M46.8,66.9l0.2,1l-0.1,0c-0.1-0.2-0.2-0.4-0.3-0.5c-0.1-0.1-0.2-0.1-0.3-0.2
			c-0.1,0-0.2,0-0.4,0l-0.3,0.1l0.6,2.9c0,0.2,0.1,0.3,0.1,0.3c0,0,0.1,0.1,0.2,0.1c0.1,0,0.2,0,0.3,0l0.1,0l0,0.1l-2,0.4l0-0.1
			l0.1,0c0.1,0,0.2-0.1,0.3-0.1c0,0,0.1-0.1,0.1-0.2c0,0,0-0.2,0-0.4l-0.6-2.9l-0.3,0.1c-0.3,0-0.4,0.1-0.5,0.3
			c-0.1,0.2-0.2,0.4-0.2,0.7l-0.1,0l-0.2-1L46.8,66.9z M51.2,65l0.5,1.2l-0.1,0c-0.2-0.3-0.5-0.5-0.7-0.6c-0.3-0.1-0.6-0.1-0.8,0
			c-0.2,0.1-0.4,0.2-0.5,0.4c-0.1,0.2-0.2,0.4-0.2,0.7c0,0.3,0.1,0.6,0.2,0.9c0.1,0.3,0.3,0.6,0.5,0.8c0.2,0.2,0.4,0.4,0.6,0.4
			c0.2,0.1,0.5,0,0.8-0.1c0.2-0.1,0.4-0.2,0.6-0.4c0.1-0.2,0.3-0.4,0.4-0.7l0.1,0.3c-0.1,0.3-0.3,0.5-0.4,0.7s-0.4,0.3-0.7,0.5
			c-0.4,0.2-0.8,0.2-1.1,0.2c-0.4,0-0.7-0.2-1-0.4c-0.3-0.2-0.5-0.5-0.6-0.8c-0.1-0.3-0.2-0.7-0.1-1.1c0.1-0.4,0.2-0.7,0.4-1
			c0.2-0.3,0.5-0.5,0.9-0.6c0.3-0.1,0.5-0.2,0.9-0.2c0.2,0,0.3,0,0.3,0c0.1,0,0.1-0.1,0.1-0.1c0-0.1,0-0.1,0-0.2L51.2,65z M55,62.9
			c-0.2,0.1-0.3,0.3-0.2,0.4c0,0.1,0.1,0.2,0.1,0.3l0.8,1.2c0.2,0.4,0.4,0.7,0.4,0.9c0.1,0.2,0,0.4-0.1,0.7
			c-0.1,0.3-0.3,0.5-0.7,0.7c-0.3,0.2-0.5,0.3-0.7,0.3c-0.3,0-0.5,0-0.7-0.1c-0.2-0.1-0.4-0.3-0.5-0.6l-1-1.6
			c-0.1-0.2-0.2-0.3-0.2-0.3c0,0-0.1,0-0.2,0c-0.1,0-0.2,0.1-0.3,0.1l-0.1-0.1l1.7-1.1l0.1,0.1L53.3,64C53,64.1,53,64.2,53,64.4
			c0,0.1,0.1,0.2,0.2,0.4l1,1.6c0.2,0.3,0.3,0.4,0.4,0.5c0.1,0.1,0.2,0.1,0.4,0.1c0.1,0,0.3,0,0.4-0.1c0.4-0.2,0.5-0.5,0.5-0.9
			c0-0.2-0.1-0.4-0.3-0.8l-0.8-1.3c-0.2-0.2-0.3-0.4-0.4-0.3c-0.1,0-0.2,0.1-0.3,0.1l-0.1-0.1l1.1-0.7c0.1,0,0.1-0.1,0.2-0.2
			c0,0,0,0,0-0.1c0,0,0,0,0,0c0,0,0,0-0.1,0c-0.1,0-0.1,0-0.2,0c-0.1,0-0.1-0.1-0.2-0.2c0-0.1,0-0.2,0-0.2c0-0.1,0.1-0.1,0.2-0.2
			c0.2,0,0.3,0,0.4,0.2c0,0,0,0.1,0.1,0.2c0,0.1,0,0.3-0.1,0.4C55.3,62.7,55.2,62.8,55,62.9L55,62.9z M60,61.1
			c0.3,0.4,0.5,0.8,0.5,1.2c0,0.6-0.2,1.1-0.8,1.6c-0.5,0.5-1.1,0.6-1.7,0.5c-0.5-0.1-0.9-0.3-1.2-0.7c-0.4-0.4-0.5-0.9-0.5-1.5
			c0.1-0.5,0.3-0.9,0.8-1.3c0.2-0.2,0.4-0.3,0.6-0.4c0.1,0,0.2-0.1,0.5-0.2c0.2,0,0.3-0.1,0.4-0.2c0.1-0.1,0.2-0.1,0.2-0.2
			c0,0,0-0.1,0-0.1c0,0,0,0,0,0c0,0-0.1,0-0.2,0c-0.1,0-0.1-0.1-0.2-0.1c0-0.1,0-0.1,0-0.2c0-0.1,0.1-0.2,0.2-0.2c0.1,0,0.2,0,0.3,0
			c0.1,0,0.2,0.1,0.2,0.2c0.1,0.1,0,0.3,0,0.4c0,0.1-0.2,0.2-0.4,0.4C59.2,60.4,59.6,60.7,60,61.1L60,61.1z M57.3,61.1
			c-0.5,0.4-0.4,1.1,0.3,2c0.4,0.5,0.8,0.8,1.2,0.9c0.3,0.1,0.5,0,0.7-0.2c0.3-0.3,0.4-0.6,0.2-1.1c-0.1-0.3-0.3-0.5-0.5-0.9
			c-0.6-0.7-1-1-1.4-0.9C57.6,60.9,57.4,60.9,57.3,61.1L57.3,61.1z M55.7,60.5l0.7-0.6l0.9,0.5L57,60.6L55.7,60.5z M60,58.3l3,0.2
			l-1.2-1.1c-0.2-0.2-0.3-0.2-0.4-0.2c-0.1,0-0.3,0.1-0.4,0.2l-0.1-0.1l0.9-0.9l0.1,0.1c-0.1,0.1-0.2,0.2-0.2,0.3c0,0.1,0,0.1,0,0.2
			c0,0.1,0.1,0.2,0.3,0.3l2.3,2.1l-0.1,0.1l-4.1-0.2l1.8,1.6c0.2,0.1,0.3,0.2,0.4,0.2c0.1,0,0.2-0.1,0.3-0.2l0.1-0.1l0.1,0.1l-0.9,1
			l-0.1-0.1c0.1-0.2,0.2-0.3,0.2-0.4c0-0.1-0.1-0.2-0.2-0.4l-2-1.8l-0.1,0c-0.1,0-0.2,0-0.3,0c-0.1,0-0.1,0.1-0.2,0.2L59,59.3
			L60,58.3z M64.1,52.8l1.1,0.8l-0.1,0.1c-0.4-0.1-0.7-0.1-1,0c-0.3,0.1-0.5,0.3-0.7,0.5c-0.2,0.2-0.2,0.5-0.2,0.7
			c0,0.3,0.1,0.5,0.3,0.7c0.2,0.2,0.4,0.4,0.7,0.6c0.3,0.2,0.6,0.3,0.9,0.4c0.3,0.1,0.5,0.1,0.7,0c0.2-0.1,0.4-0.2,0.5-0.5
			c0.1-0.1,0.1-0.2,0.1-0.3c0-0.1,0.1-0.2,0.1-0.3l-0.6-0.4c-0.1-0.1-0.2-0.1-0.3-0.1c0,0-0.1,0-0.2,0c-0.1,0-0.1,0.1-0.2,0.2
			l-0.1,0.1l-0.1-0.1l1.1-1.6l0.1,0.1c-0.1,0.1-0.1,0.2-0.1,0.3c0,0.1,0,0.1,0,0.2c0,0,0.1,0.1,0.2,0.2l0.6,0.4
			c-0.1,0.3-0.1,0.5-0.2,0.8c-0.1,0.2-0.2,0.5-0.4,0.7c-0.2,0.3-0.4,0.5-0.6,0.7c-0.2,0.2-0.4,0.3-0.7,0.3c-0.2,0.1-0.5,0.1-0.7,0.1
			c-0.3,0-0.6-0.1-0.8-0.3c-0.5-0.3-0.7-0.8-0.8-1.3s0-1.1,0.4-1.6c0.1-0.2,0.2-0.3,0.3-0.4c0.1-0.1,0.2-0.1,0.3-0.3
			c0.2-0.1,0.3-0.2,0.3-0.2c0,0,0-0.1,0-0.2C64.1,53,64.1,53,64.1,52.8L64.1,52.8z"/>
		<g>
			<path class="st3" d="M46.6,54.6c0,0,0.6,3.2-1.6,4.7c2.4,0.2,3.4,0.5,4.3,2.7c-1.9,0.2-4-0.1-4.9-2.5S45.5,55,46.6,54.6z"/>
			<path class="st3" d="M48.7,53.3c0,0,1.2,3-0.6,4.9c2.4-0.4,3.5-0.3,4.7,1.6c-1.9,0.7-3.9,0.9-5.3-1.3
				C46.1,56.4,47.7,53.9,48.7,53.3z"/>
			<path class="st3" d="M50.9,51.3c0,0,1.7,2.7,0.3,4.9c2.3-0.8,3.3-0.9,4.9,0.7c-1.7,1-3.7,1.6-5.5-0.3
				C48.8,54.8,50,52.1,50.9,51.3z"/>
			<path class="st3" d="M53,49.2c0,0,2.1,2.2,1.1,4.6c2-1.2,3-1.6,4.8-0.3c-1.4,1.3-3.2,2.2-5.2,0.9C51.7,53,52.3,50.1,53,49.2z"/>
			<path class="st3" d="M54.5,46.2c0,0,2.5,1.7,2,4.3c1.7-1.6,2.6-2.2,4.6-1.3c-1.1,1.6-2.7,2.8-4.9,2C54,50.2,54.1,47.3,54.5,46.2z
				"/>
			<path class="st3" d="M55.8,43.7c0,0,2.8,1,3,3.5c1.2-2,2-2.8,4.1-2.6c-0.7,1.8-1.9,3.5-4.3,3.3C56.2,47.7,55.6,44.9,55.8,43.7z"
				/>
			<path class="st3" d="M56.1,39.5c0,0,2.8,1,3,3.5c1.2-2,2-2.8,4.1-2.6c-0.7,1.8-1.9,3.5-4.2,3.3C56.6,43.5,55.9,40.6,56.1,39.5z"
				/>
			<path class="st3" d="M56.1,36.4c0,0,2.7,0.1,3.5,2.3c0.6-2.1,1.1-3,3-3.4c-0.2,1.8-0.8,3.6-3,4C57.5,39.8,56.2,37.4,56.1,36.4z"
				/>
			<path class="st3" d="M55.4,32.8c0,0,2.7-0.2,3.7,2c0.4-2.2,0.8-3.1,2.7-3.6c0,1.8-0.5,3.6-2.6,4.2C57,36.1,55.6,33.8,55.4,32.8z"
				/>
			<path class="st3" d="M53.9,29.7c0,0,2.5-0.5,3.7,1.4c0.1-2.1,0.4-3,2.1-3.8c0.2,1.7,0,3.5-1.9,4.3C55.8,32.4,54.2,30.6,53.9,29.7
				z"/>
			<path class="st3" d="M51.9,27.2c0,0,2.4-1.1,3.9,0.5c-0.3-2.1-0.3-3,1.3-4.1c0.5,1.6,0.7,3.4-1,4.7C54.4,29.5,52.4,28,51.9,27.2z
				"/>
			<path class="st3" d="M49.9,25.3c0,0,2-1.7,3.8-0.7c-0.8-1.9-1-2.8,0.1-4.4c0.9,1.4,1.5,3,0.3,4.8C52.9,26.8,50.6,26,49.9,25.3z"
				/>
			<path class="st3" d="M47.5,23.1c0,0,1.8-1.6,3.4-0.6C50.2,20.8,50,20,51,18.6c0.8,1.2,1.4,2.7,0.3,4.3
				C50.2,24.4,48.1,23.7,47.5,23.1z"/>
			<path class="st3" d="M45.4,19.3c0,0,1.5,2.5,4.2,2C49.5,19.6,46.2,18.8,45.4,19.3z"/>
			<rect x="42.2" y="57.9" class="st3" width="1" height="3.7"/>
			<rect x="39.8" y="56.9" class="st3" width="1" height="5.5"/>
			<path class="st3" d="M29.3,54.6c0,0-0.6,3.2,1.6,4.7c-2.4,0.2-3.4,0.5-4.3,2.7c1.9,0.2,4-0.1,4.9-2.5C32.5,57,30.4,55,29.3,54.6z
				"/>
			<path class="st3" d="M27.2,53.3c0,0-1.2,3,0.6,4.9c-2.4-0.4-3.5-0.3-4.7,1.6c1.9,0.7,3.9,0.9,5.3-1.3
				C29.8,56.4,28.1,53.9,27.2,53.3z"/>
			<path class="st3" d="M25,51.3c0,0-1.7,2.7-0.3,4.9c-2.3-0.8-3.3-0.9-4.9,0.7c1.7,1,3.7,1.6,5.5-0.3C27.1,54.8,25.8,52.1,25,51.3z
				"/>
			<path class="st3" d="M22.9,49.2c0,0-2.1,2.2-1.1,4.6c-2-1.2-3-1.6-4.8-0.3c1.4,1.3,3.2,2.2,5.2,0.9C24.2,53,23.5,50.1,22.9,49.2z
				"/>
			<path class="st3" d="M21.3,46.2c0,0-2.5,1.7-2,4.3c-1.7-1.6-2.6-2.2-4.6-1.3c1.1,1.6,2.7,2.8,4.9,2
				C21.9,50.2,21.8,47.3,21.3,46.2z"/>
			<path class="st3" d="M20.1,43.7c0,0-2.8,1-3,3.5c-1.2-2-2-2.8-4.1-2.6c0.7,1.8,1.9,3.5,4.3,3.3C19.6,47.7,20.3,44.9,20.1,43.7z"
				/>
			<path class="st3" d="M19.8,39.5c0,0-2.8,1-3,3.5c-1.2-2-2-2.8-4.1-2.6c0.7,1.8,1.9,3.5,4.2,3.3C19.3,43.5,19.9,40.6,19.8,39.5z"
				/>
			<path class="st3" d="M19.7,36.4c0,0-2.7,0.1-3.5,2.3c-0.6-2.1-1.1-3-3-3.4c0.2,1.8,0.8,3.6,3,4C18.4,39.8,19.6,37.4,19.7,36.4z"
				/>
			<path class="st3" d="M20.5,32.8c0,0-2.7-0.2-3.7,2c-0.4-2.2-0.8-3.1-2.7-3.6c0,1.8,0.5,3.6,2.6,4.2
				C18.8,36.1,20.3,33.8,20.5,32.8z"/>
			<path class="st3" d="M22,29.7c0,0-2.5-0.5-3.7,1.4c-0.1-2.1-0.4-3-2.1-3.8c-0.2,1.7,0,3.5,1.9,4.3C20.1,32.4,21.7,30.6,22,29.7z"
				/>
			<path class="st3" d="M23.9,27.2c0,0-2.4-1.1-3.9,0.5c0.3-2.1,0.3-3-1.3-4.1c-0.5,1.6-0.7,3.4,1,4.7C21.5,29.5,23.4,28,23.9,27.2z
				"/>
			<path class="st3" d="M25.9,25.3c0,0-2-1.7-3.8-0.7c0.8-1.9,1-2.8-0.1-4.4c-0.9,1.4-1.5,3-0.3,4.8C23,26.8,25.2,26,25.9,25.3z"/>
			<path class="st3" d="M28.4,23.1c0,0-1.8-1.6-3.4-0.6c0.8-1.7,0.9-2.5-0.1-3.9c-0.8,1.2-1.4,2.7-0.3,4.3
				C25.7,24.4,27.7,23.7,28.4,23.1z"/>
			<path class="st3" d="M30.5,19.3c0,0-1.5,2.5-4.2,2C26.4,19.6,29.7,18.8,30.5,19.3z"/>
			<rect x="32.7" y="57.9" class="st3" width="1" height="3.7"/>
			<rect x="35.1" y="56.9" class="st3" width="1" height="5.5"/>
			<rect x="37.4" y="55.7" class="st3" width="1" height="8"/>
		</g>
		<g>
			<path class="st1" d="M37.4,30.3c-4,0.5-7,3.5-9,3c-0.7-0.2-0.7-0.5-1.2-0.7l-3.9,8.4c-0.2,0.5-0.6,0.8-0.7,1.1
				c0.8,0.2,0.4,0.1,0.8,0.6c0.9,0.9,2.1,1.3,3.4,1.3c0.9,0,1.8-0.2,2.5-0.6l1.7-1.5c-0.8-0.8-0.3,0.1-1.1-1.7l-2.7-5.6
				c1.1,0.2,1.4,0.5,2.8,0.2c2.6-0.7,5.1-2.9,7.9-2.9c4.4,0,6.2,4,10.9,2.7c-0.5,1.2-1.2,2.6-1.8,3.7l-1.4,2.9
				c-0.3,0.7-0.4,0.3-0.6,0.9c1.2,0.4,1.1,1.9,4.3,1.9c2.6,0,3.1-1,3.8-1.7c0.3-0.3,0.1,0.1,0.4-0.3c-0.8-0.9-0.8-1-1.3-2.1L50.1,35
				c-0.2-0.4-0.4-0.7-0.6-1.2c-0.2-0.5-0.3-1-0.5-1.4c-0.8,0.4-0.9,1.1-2.5,0.7c-2.2-0.6-2.6-1.6-7.5-2.9l-0.1-1.5
				c-0.8,0.2-0.8,0.2-1.6,0V30.3z"/>
			<path class="st1" d="M36,33.1l-0.1,3c-0.8,0-0.8,0-0.8,0.8l0.8,0.3c-0.2,0.5-0.9,0.5,0,1.5c-0.2,1.8-0.8,3.7-1.6,5.1
				c0.2,0.5,0.7,1,1.1,1.5c0.8,1.1,2,3.4,1.8,4.8c0,0.4-0.3,0.6,0.4,0.6c0.5-0.6,0.2-5,0.2-6.5c0-2.1-0.7-1.5-0.3-2.1
				c0.3-0.5,0.7-0.3,1.1-0.2c0.4,1.2-0.2,0.3-0.2,2c0,0.9,0,1.7,0,2.5s0,1.7,0,2.5c0,0.7-0.2,2.2,0.7,1.5c0.1-0.7-0.4-0.2,0.1-1.8
				c0.2-0.7,0.4-1.1,0.7-1.7c0.9-1.8,1.7-2.5,1.9-2.8c0.3-0.5-0.1-0.9-0.4-1.5c-0.4-0.9-1.3-3.2-0.9-4.1c0.1-0.2,0.2,0.3,0.2-0.5
				c0-1-0.2,0-0.4-0.8l0.8-0.2l0-0.8c-1-0.4-0.8,0.8-0.8-3.2C38.7,32.7,37.3,32.4,36,33.1L36,33.1z"/>
			<path class="st2" d="M23.3,41.7l3.3,0l0.1-6.9c-0.7,0.7-1.3,2.5-1.8,3.5C24.4,39.2,23.5,40.8,23.3,41.7L23.3,41.7z"/>
			<path class="st2" d="M27,41.7l3.4,0c-0.9-2.2-2.2-4.8-3.3-7L27,41.7z"/>
			<path class="st2" d="M49.6,41.7l3.4,0c-1.1-2.3-2.2-4.7-3.3-7L49.6,41.7z"/>
			<polygon class="st2" points="45.8,41.6 49.2,41.7 49.3,34.7 			"/>
			<path class="st1" d="M38.4,24.7c-1.4,0.4-2.5,3.7-0.3,3.8c1,0.1,1.6-0.7,1.4-1.7C39.4,26,38.7,25.1,38.4,24.7L38.4,24.7z"/>
		</g>
	</g>
	<g>
		<path class="st4" d="M97,25.4v7.9c0,3.9,0.1,6.9,0.4,9.1c0.2,1.8,0.6,3.6,1.1,5.2c0.5-1.3,0.9-3.1,1.1-5.2c0.2-2,0.4-5,0.4-9.1
			v-7.9h6v8.3c0,2.3-0.1,4.5-0.3,6.5c-0.2,2-0.4,3.6-0.7,5c-0.3,1.4-0.8,2.8-1.3,4.1c-0.6,1.3-1.2,2.5-2,3.6h-6.5
			c-0.5-0.7-0.9-1.5-1.3-2.3s-0.8-1.7-1.1-2.6c-0.3-0.9-0.6-1.9-0.8-2.8c-0.7-2.9-1-6.8-1-11.4v-8.3h6V25.4z"/>
		<path class="st4" d="M108.9,25.4h8.1c2.6,0,4.4,0.6,5.5,1.8c1,1.2,1.5,3.3,1.6,6.5c0,2.5-0.5,4.2-1.6,5.3c-1,1-2.8,1.5-5.5,1.5h-2
			v12.4h-6.1V25.4z M114.7,35.8h1.1c0.8,0,1.4-0.2,1.8-0.6c0.3-0.4,0.4-1.1,0.5-2.3c0-1-0.2-1.6-0.5-2s-0.9-0.6-1.6-0.6h-1.2v5.5
			H114.7z"/>
		<path class="st4" d="M125.8,34.2c0-1.7,0.1-3.2,0.4-4.3s0.7-2.1,1.3-2.8c1.1-1.4,3.1-2,5.9-2c2.7,0,4.7,0.7,5.9,2
			c1.1,1.4,1.7,3.8,1.8,7.2v2H135v-3.4c0-1.1-0.1-1.8-0.3-2.1c-0.2-0.3-0.6-0.5-1.2-0.5c-0.6,0-1,0.1-1.2,0.4s-0.3,0.9-0.3,2v0.8
			v12.2c0,1.1,0.1,1.7,0.3,2s0.6,0.4,1.2,0.4c0.6,0,0.9-0.1,1.2-0.4c0.2-0.3,0.3-1.1,0.3-2.2v-0.6v-4.1h6.1V44
			c0,3.4-0.6,5.8-1.8,7.2c-1.1,1.4-3.1,2-5.9,2c-2.8,0-4.7-0.7-5.9-2c-1.1-1.4-1.7-3.8-1.8-7.2L125.8,34.2L125.8,34.2z"/>
		<path class="st4" d="M143.9,34.2c0-1.7,0.1-3.2,0.4-4.3s0.7-2.1,1.3-2.8c1.1-1.4,3.1-2,5.9-2c2.7,0,4.7,0.7,5.9,2
			c1.1,1.4,1.7,3.8,1.8,7.2v2H153v-3.4c0-1.1-0.1-1.8-0.3-2.1c-0.2-0.3-0.6-0.5-1.2-0.5c-0.6,0-1,0.1-1.2,0.4s-0.3,0.9-0.3,2v0.8
			v12.2c0,1.1,0.1,1.7,0.3,2s0.6,0.4,1.2,0.4c0.6,0,0.9-0.1,1.2-0.4c0.2-0.3,0.3-1.1,0.3-2.2v-0.6v-4.1h6.1V44
			c0,3.4-0.6,5.8-1.8,7.2c-1.1,1.4-3.1,2-5.9,2c-2.8,0-4.7-0.7-5.9-2c-1.1-1.4-1.7-3.8-1.8-7.2v-9.8H143.9z"/>
		<path class="st4" d="M171.1,25.4h5.6c0.5,0.8,1,1.8,1.7,3.2c0.5,1.1,1.1,2.4,1.7,4v-7.2h6v27.4h-6v-5.4c0-2.4-0.3-4.6-0.8-6.7
			c-0.5-2.2-1.2-4.2-2.2-6.1v18.2H171V25.4H171.1z"/>
		<path class="st4" d="M189.6,34.2c0-1.7,0.1-3.2,0.4-4.3s0.7-2.1,1.3-2.8c1.1-1.4,3.1-2,5.9-2c2.7,0,4.6,0.7,5.9,2
			c1.1,1.3,1.7,3.6,1.8,6.6v1.1h-6.1v-2c0-1.1-0.1-1.8-0.3-2.1c-0.2-0.3-0.6-0.5-1.2-0.5c-0.6,0-1,0.1-1.2,0.4s-0.3,0.9-0.3,2v0.8
			v11.3c0,1.4,0.1,2.3,0.4,2.7c0.2,0.3,0.7,0.5,1.4,0.5s1.1-0.2,1.4-0.6c0.2-0.4,0.4-1.3,0.4-2.9v-0.6v-3h-1.6v-4.5h7.2v16.5h-2.6
			l-0.8-1.2c-0.6,0.5-1.3,0.9-2.1,1.2c-0.7,0.2-1.6,0.4-2.6,0.4c-2.5,0-4.4-0.7-5.5-2.1c-1.1-1.4-1.6-3.7-1.7-7.1L189.6,34.2
			L189.6,34.2z"/>
		<path class="st4" d="M214.4,44.8v0.8c0,1.1,0.1,1.7,0.3,2s0.6,0.4,1.2,0.4s1-0.2,1.2-0.5c0.2-0.4,0.3-1.2,0.3-2.4v-0.3V25.4h6.1
			V44c0,3.4-0.6,5.8-1.8,7.2c-1.1,1.4-3.1,2-5.8,2s-4.7-0.7-5.8-2c-1.1-1.4-1.7-3.8-1.7-7.2V25.4h6.1v19.4H214.4z"/>
		<path class="st4" d="M229.9,45c-1.5-2.6-2.6-5.5-3.4-8.8c-0.4-1.7-0.7-3.4-0.9-5.1c-0.2-1.7-0.3-3.4-0.3-5.2v-0.6h6.1
			c0.1,3.5,0.2,6.5,0.5,8.9c0.2,2.3,0.6,4.1,1,5.1c0.4-0.9,0.7-2.6,1-5.2c0.3-2.4,0.5-5.4,0.5-8.9h6v1.3c0,3.3-0.4,6.5-1.2,9.7
			c-0.4,1.6-0.8,3.1-1.4,4.5s-1.2,2.8-2,4.1v7.8h-6.1V45H229.9z"/>
		<path class="st4" d="M242.5,52.8V25.4h12.4v5.2h-6.3v4.7h6.1v5.2h-6.1v7.2h6.6v5.2h-12.7V52.8z M251.2,14.4h2.6v1.2
			c0,0.9-0.2,1.6-0.5,2c-0.4,0.4-0.9,0.6-1.6,0.6h-0.4H251c-0.1,0-0.1,0-0.2,0l-3.3-0.6c0,0-0.1,0-0.2,0h-0.1
			c-0.3,0-0.5,0.1-0.7,0.3c-0.2,0.1-0.3,0.4-0.3,0.7h-2.6v-1.2c0-0.9,0.2-1.5,0.5-1.9c0.4-0.4,0.9-0.6,1.6-0.7c0.2,0,0.3,0,0.5,0
			s0.3,0,0.4,0.1l3.3,0.5h0.1c0.1,0,0.1,0,0.2,0c0.3,0,0.5-0.1,0.7-0.3C251.1,15,251.2,14.7,251.2,14.4z M245.9,19.4h4.9l2.3,4.2
			h-3.6l-1.2-1.8l-1.2,1.8h-3.6L245.9,19.4z"/>
		<path class="st4" d="M258,25.4h5.6c0.5,0.8,1,1.8,1.7,3.2c0.5,1.1,1.1,2.4,1.7,4v-7.2h6v27.4h-6v-5.4c0-2.4-0.3-4.6-0.8-6.7
			c-0.5-2.2-1.2-4.2-2.2-6.1v18.2h-6V25.4z"/>
		<path class="st4" d="M290.8,25.4v7.9c0,3.9,0.1,6.9,0.4,9.1c0.2,1.8,0.6,3.6,1.1,5.2c0.5-1.3,0.9-3.1,1.1-5.2c0.2-2,0.4-5,0.4-9.1
			v-7.9h6v8.3c0,2.3-0.1,4.5-0.3,6.5s-0.4,3.6-0.7,5c-0.3,1.4-0.8,2.8-1.3,4.1c-0.6,1.3-1.2,2.5-2,3.6H289c-0.5-0.7-0.9-1.5-1.3-2.3
			s-0.8-1.7-1.1-2.6c-0.3-0.9-0.6-1.9-0.8-2.8c-0.7-2.9-1-6.8-1-11.4v-8.3h6V25.4z"/>
		<path class="st4" d="M302.7,25.4h6.1v27.4h-6.1V25.4z"/>
		<path class="st4" d="M312.7,52.8V25.4H325v5.2h-6.3v4.7h6.1v5.2h-6.1v7.2h6.6v5.2h-12.6V52.8z M316.2,19.4h4.9l2.3,4.2h-3.6
			l-1.2-1.8l-1.2,1.8h-3.6L316.2,19.4z M317.1,59.2v-3.9h3.9v3.9H317.1z"/>
		<path class="st4" d="M327,30.4v-5h13.1v5h-3.5v22.4h-6.1V30.4H327z"/>
		<path class="st4" d="M351.2,34.2c0-1.7,0.1-3.2,0.4-4.3s0.7-2.1,1.3-2.8c1.1-1.4,3.1-2,5.9-2c2.7,0,4.7,0.7,5.9,2
			c1.1,1.4,1.7,3.8,1.8,7.2v2h-6.1v-3.4c0-1.1-0.1-1.8-0.3-2.1c-0.2-0.3-0.6-0.5-1.2-0.5s-1,0.1-1.2,0.4s-0.3,0.9-0.3,2v0.8v12.2
			c0,1.1,0.1,1.7,0.3,2c0.2,0.3,0.6,0.4,1.2,0.4s0.9-0.1,1.2-0.4c0.2-0.3,0.3-1.1,0.3-2.2v-0.6v-4.1h6.1V44c0,3.4-0.6,5.8-1.8,7.2
			c-1.1,1.4-3.1,2-5.9,2s-4.7-0.7-5.9-2c-1.1-1.4-1.7-3.8-1.8-7.2v-9.8H351.2z"/>
		<path class="st4" d="M384.6,30.2V44c0,3.4-0.6,5.8-1.8,7.2c-1.1,1.4-3.1,2-5.8,2c-2.7,0-4.7-0.7-5.8-2c-1.1-1.4-1.7-3.8-1.7-7.2
			V25.4h6.1v20.2c0,1.1,0.1,1.7,0.3,2c0.2,0.3,0.6,0.4,1.2,0.4s1-0.2,1.2-0.5c0.2-0.4,0.3-1.2,0.3-2.4V25.4h4.1v-2.6h4.1v5.5
			L384.6,30.2z"/>
		<path class="st4" d="M402.6,29.8c0.3,1.2,0.5,2.7,0.5,4.5V44c0,3.4-0.6,5.8-1.8,7.2c-1.1,1.4-3.1,2-5.9,2s-4.7-0.7-5.9-2
			c-1.1-1.4-1.7-3.8-1.8-7.2v-9.7c0-1.7,0.1-3.2,0.4-4.3s0.7-2.1,1.3-2.8c1.1-1.4,3.1-2,5.9-2c1.9,0,3.5,0.3,4.6,1v-3.3h4.1v5.5
			L402.6,29.8z M391.3,19.4h4.4l1.6,4.2h-3.5L391.3,19.4z M394,33.4v12.2c0,1.1,0.1,1.7,0.3,2c0.2,0.3,0.6,0.4,1.2,0.4
			s0.9-0.1,1.2-0.4c0.2-0.3,0.3-1.1,0.3-2.2v-0.6v-12c0-1.1-0.1-1.8-0.3-2.1c-0.2-0.3-0.6-0.5-1.2-0.5s-1,0.1-1.2,0.4
			s-0.3,0.9-0.3,2V33.4z"/>
		<path class="st4" d="M406.5,25.4h5.6c0.5,0.8,1,1.8,1.7,3.2c0.5,1.1,1.1,2.4,1.7,4v-7.2h6v27.4h-6v-5.4c0-2.4-0.3-4.6-0.8-6.7
			c-0.5-2.2-1.2-4.2-2.2-6.1v18.2h-6.1L406.5,25.4L406.5,25.4z"/>
		<path class="st4" d="M425,34.2c0-1.7,0.1-3.2,0.4-4.3s0.7-2.1,1.3-2.8c1.1-1.4,3.1-2,5.9-2c2.7,0,4.6,0.7,5.9,2
			c1.1,1.3,1.7,3.6,1.8,6.6v1.1h-6.1v-2c0-1.1-0.1-1.8-0.3-2.1c-0.2-0.3-0.6-0.5-1.2-0.5s-1,0.1-1.2,0.4s-0.3,0.9-0.3,2v0.8v11.3
			c0,1.4,0.1,2.3,0.4,2.7c0.2,0.3,0.7,0.5,1.4,0.5c0.7,0,1.1-0.2,1.4-0.6c0.2-0.4,0.4-1.3,0.4-2.9v-0.6v-3H433v-4.5h7.2v16.5h-2.6
			l-0.8-1.2c-0.6,0.5-1.3,0.9-2.1,1.2c-0.7,0.2-1.6,0.4-2.6,0.4c-2.5,0-4.4-0.7-5.5-2.1c-1.1-1.4-1.6-3.7-1.7-7.1v-9.8H425z"/>
	</g>
</g>
</svg>
