<?xml version="1.0" encoding="utf-8"?>
<!-- Generator: Adobe Illustrator 16.0.0, SVG Export Plug-In . SVG Version: 6.00 Build 0)  -->
<!DOCTYPE svg PUBLIC "-//W3C//DTD SVG 1.1//EN" "http://www.w3.org/Graphics/SVG/1.1/DTD/svg11.dtd">
<svg version="1.1" id="Layer_1" xmlns="http://www.w3.org/2000/svg" xmlns:xlink="http://www.w3.org/1999/xlink" x="0px" y="0px"
	 width="450px" height="77px" viewBox="0 0 450 77" enable-background="new 0 0 450 77" xml:space="preserve">
<g id="BACKGROUND">
</g>
<g id="DESIGNED_BY_FREEPIK">
</g>
<g>
	<g id="OBJECTS">
		<g>
			<circle fill="#DD3333" cx="36.226" cy="38.5" r="35"/>
			<g>
				<g>
					<g>
						<g>
							<path fill="#FFFFFF" d="M37.638,26.341c0,0.776-0.631,1.411-1.412,1.411c-0.781,0-1.412-0.635-1.412-1.411
								c0-0.781,0.631-1.412,1.412-1.412C37.007,24.929,37.638,25.56,37.638,26.341z"/>
							<path fill="#FFFFFF" d="M36.894,28.106c-0.211,0.075-0.433,0.122-0.668,0.122s-0.457-0.047-0.668-0.122
								c-0.711,5.396-1.74,13.431-1.74,14.8c0,0.24,0.014,0.479,0.042,0.705h4.732c0.028-0.226,0.042-0.465,0.042-0.705
								C38.634,41.537,37.604,33.502,36.894,28.106z"/>
							<path fill="#FFFFFF" d="M41.622,47.409c-1.492-1.237-2.936-3.255-2.936-3.255h-4.922c0,0-1.443,2.019-2.936,3.255H41.622z"/>
							<rect x="23.636" y="48.091" fill="#FFFFFF" width="24.389" height="1.359"/>
							<g>
								<g>
									<g>
										<path fill="#FFFFFF" d="M29.921,40.323c0.217,0,0.396,0.184,0.377,0.399c-0.203,2.739-2.493,4.903-5.283,4.903
											c-2.795,0-5.086-2.165-5.288-4.903c-0.02-0.216,0.16-0.399,0.377-0.399H29.921z"/>
									</g>
									<path fill="#FFFFFF" d="M21.058,39.882l3.957-6.803l3.957,6.803h0.672l-4.337-7.463v-4.064
										c0-0.165-0.133-0.297-0.292-0.297c-0.165,0-0.292,0.132-0.292,0.297v4.064l-4.342,7.463H21.058z"/>
								</g>
								<g>
									<g>
										<path fill="#FFFFFF" d="M52.348,40.323c0.217,0,0.396,0.184,0.377,0.399c-0.202,2.739-2.493,4.903-5.284,4.903
											c-2.794,0-5.084-2.165-5.287-4.903c-0.019-0.216,0.16-0.399,0.377-0.399H52.348z"/>
									</g>
									<path fill="#FFFFFF" d="M43.479,39.882l3.961-6.803l3.953,6.803h0.677l-4.338-7.463v-4.064
										c0-0.165-0.131-0.297-0.292-0.297c-0.163,0-0.296,0.132-0.296,0.297v4.064l-4.337,7.463H43.479z"/>
								</g>
							</g>
							<g>
								<g>
									<path fill="#FFFFFF" d="M23.011,28.957c0.004,0.004,0.009,0.004,0.014,0.009c0.075,0.042,0.16,0.09,0.254,0.141
										c0.188,0.108,0.434,0.207,0.725,0.296c0.133,0.034,0.277,0.066,0.424,0.09v-1.044c-0.047-0.005-0.095-0.01-0.142-0.019
										c0.09-0.155,0.142-0.334,0.142-0.527c0-0.607-0.494-1.101-1.105-1.101c-0.608,0-1.102,0.494-1.102,1.101
										C22.22,28.402,22.554,28.825,23.011,28.957z"/>
									<path fill="#FFFFFF" d="M34.819,25.085c-0.076-0.028-0.161-0.062-0.24-0.089c-0.084-0.028-0.165-0.052-0.254-0.08
										c-0.085-0.028-0.169-0.052-0.265-0.07c-0.361-0.089-0.771-0.127-1.203-0.118c-0.108,0.01-0.217,0.015-0.329,0.024
										c-0.113,0.009-0.222,0.038-0.335,0.057c-0.226,0.032-0.446,0.117-0.678,0.188c-0.137,0.056-0.188,0.075-0.319,0.137
										l-0.169,0.085l-0.16,0.084c-0.208,0.113-0.404,0.235-0.603,0.357c-0.391,0.254-0.771,0.518-1.144,0.781
										c-0.738,0.527-1.472,1.025-2.173,1.397c-0.47,0.245-0.927,0.424-1.351,0.527v1.144c0.184-0.024,0.372-0.057,0.56-0.104
										c0.405-0.103,0.81-0.249,1.214-0.432c0.81-0.363,1.601-0.875,2.362-1.374c0.381-0.245,0.753-0.499,1.12-0.72
										c0.183-0.108,0.362-0.217,0.536-0.301l0.132-0.065l0.117-0.057c0.065-0.033,0.207-0.085,0.263-0.104
										c0.339-0.108,0.673-0.184,0.993-0.188c0.32,0,0.631,0.024,0.908,0.1c0.07,0.014,0.137,0.033,0.202,0.056
										c0.066,0.019,0.132,0.038,0.198,0.061c0.046,0.02,0.094,0.038,0.141,0.057c0-0.033-0.004-0.066-0.004-0.099
										C34.34,25.856,34.522,25.419,34.819,25.085z"/>
								</g>
								<g>
									<path fill="#FFFFFF" d="M48.024,28.449v1.044c0.15-0.024,0.291-0.056,0.424-0.09c0.291-0.089,0.537-0.188,0.725-0.296
										c0.099-0.051,0.184-0.099,0.254-0.141c0.005-0.005,0.01-0.005,0.014-0.009c0.457-0.132,0.791-0.555,0.791-1.054
										c0-0.607-0.493-1.101-1.102-1.101c-0.611,0-1.1,0.494-1.1,1.101c0,0.192,0.046,0.372,0.136,0.527
										C48.119,28.439,48.071,28.444,48.024,28.449z"/>
									<path fill="#FFFFFF" d="M45.08,28.971c0.404,0.183,0.809,0.329,1.214,0.432c0.188,0.048,0.376,0.081,0.56,0.104v-1.144
										c-0.424-0.104-0.88-0.282-1.346-0.527c-0.706-0.372-1.436-0.87-2.178-1.397c-0.372-0.263-0.753-0.527-1.144-0.781
										c-0.198-0.122-0.395-0.244-0.603-0.357l-0.16-0.084l-0.169-0.085c-0.132-0.062-0.183-0.081-0.319-0.137
										c-0.231-0.071-0.452-0.156-0.678-0.188c-0.113-0.019-0.222-0.047-0.335-0.057c-0.112-0.009-0.221-0.014-0.329-0.024
										c-0.433-0.009-0.842,0.029-1.203,0.118c-0.091,0.019-0.18,0.042-0.265,0.07c-0.085,0.028-0.17,0.052-0.254,0.08
										c-0.079,0.028-0.16,0.062-0.24,0.089c0.297,0.334,0.479,0.771,0.479,1.251c0,0.033-0.004,0.066-0.004,0.099
										c0.047-0.019,0.095-0.037,0.146-0.057c0.061-0.023,0.126-0.042,0.192-0.061c0.065-0.023,0.132-0.042,0.202-0.056
										c0.277-0.076,0.588-0.1,0.908-0.1c0.32,0.005,0.654,0.081,0.993,0.188c0.056,0.019,0.197,0.07,0.263,0.104l0.117,0.057
										l0.132,0.065c0.175,0.084,0.358,0.193,0.536,0.301c0.367,0.221,0.739,0.475,1.12,0.72
										C43.479,28.096,44.271,28.608,45.08,28.971z"/>
								</g>
							</g>
							<path fill="#FFFFFF" d="M36.226,24.455c0.357,0,0.687,0.099,0.97,0.269c0-0.024,0.004-0.052,0.004-0.076
								c0-0.541-0.438-0.974-0.974-0.974s-0.974,0.433-0.974,0.974c0,0.023,0.004,0.052,0.004,0.076
								C35.539,24.554,35.872,24.455,36.226,24.455z"/>
						</g>
					</g>
					<g>
						<g>
							<g>
								<path fill="#FFDD88" d="M21.181,60.32c0.112,0.23,0.226,0.445,0.319,0.673c0.095,0.229,0.175,0.456,0.245,0.682
									c0.037,0.113,0.07,0.226,0.104,0.334c0.032,0.108,0.061,0.216,0.094,0.319c0.057,0.207,0.104,0.408,0.141,0.599
									c0.085,0.371,0.132,0.695,0.165,0.927c0.014,0.117,0.024,0.207,0.033,0.268c0.005,0.063,0.01,0.094,0.01,0.094
									s-0.033-0.014-0.09-0.033c-0.057-0.023-0.141-0.065-0.24-0.113c-0.203-0.104-0.488-0.258-0.813-0.469
									c-0.165-0.099-0.325-0.235-0.494-0.377c-0.17-0.142-0.343-0.296-0.513-0.471c-0.043-0.042-0.085-0.084-0.127-0.126
									c-0.042-0.047-0.08-0.094-0.123-0.146c-0.079-0.095-0.155-0.198-0.229-0.301c-0.155-0.207-0.297-0.429-0.424-0.664
									c-0.244-0.483-0.399-0.979-0.494-1.436c-0.089-0.466-0.113-0.907-0.108-1.284c0.005-0.371,0.033-0.677,0.071-0.897
									c0.037-0.223,0.07-0.349,0.07-0.349s0.023,0.015,0.066,0.048c0.041,0.032,0.099,0.084,0.178,0.141
									c0.161,0.123,0.376,0.302,0.612,0.542C20.116,58.749,20.71,59.421,21.181,60.32z"/>
								<path fill="#FFDD88" d="M18.094,65.368c0.292,0.042,0.588,0.042,0.861,0.032c0.277-0.01,0.541-0.037,0.791-0.075
									c0.126-0.023,0.243-0.042,0.361-0.07s0.235-0.057,0.344-0.089c0.221-0.066,0.424-0.137,0.606-0.208
									c0.367-0.146,0.654-0.292,0.852-0.405c0.099-0.057,0.18-0.104,0.23-0.137c0.052-0.037,0.08-0.057,0.08-0.057
									s-0.117-0.063-0.314-0.174c-0.203-0.108-0.494-0.254-0.856-0.396c-0.185-0.07-0.372-0.16-0.583-0.235
									c-0.207-0.074-0.435-0.15-0.674-0.216c-0.057-0.019-0.116-0.032-0.179-0.046c-0.062-0.02-0.122-0.039-0.184-0.057
									c-0.122-0.033-0.248-0.065-0.376-0.094c-0.259-0.057-0.527-0.104-0.809-0.133c-0.551-0.08-1.092-0.094-1.604-0.07
									c-0.505,0.02-0.964,0.061-1.365,0.123c-0.398,0.062-0.738,0.138-0.964,0.184c-0.23,0.052-0.357,0.094-0.357,0.094
									s0.023,0.024,0.075,0.075c0.052,0.047,0.122,0.123,0.226,0.203c0.198,0.165,0.494,0.39,0.861,0.636
									c0.089,0.057,0.188,0.117,0.287,0.178c0.104,0.062,0.211,0.117,0.319,0.174c0.227,0.117,0.467,0.227,0.715,0.33
									c0.128,0.053,0.255,0.104,0.387,0.15c0.136,0.042,0.272,0.081,0.413,0.118C17.516,65.273,17.802,65.331,18.094,65.368z"/>
							</g>
							<g>
								<path fill="#FFDD88" d="M16.895,56.924c0.07,0.245,0.122,0.489,0.164,0.733c0.02,0.122,0.038,0.245,0.053,0.366
									c0.013,0.119,0.027,0.235,0.042,0.354c0.052,0.465,0.062,0.907,0.056,1.298c-0.004,0.386-0.019,0.702-0.037,0.933
									c-0.019,0.23-0.037,0.36-0.037,0.36s-0.113-0.073-0.292-0.211c-0.184-0.136-0.424-0.356-0.687-0.639
									c-0.133-0.142-0.273-0.302-0.409-0.472c-0.137-0.174-0.265-0.371-0.391-0.578c-0.128-0.207-0.25-0.428-0.354-0.663
									c-0.099-0.24-0.188-0.489-0.259-0.748c-0.07-0.263-0.122-0.513-0.146-0.771c-0.022-0.254-0.031-0.503-0.027-0.739
									c0.009-0.234,0.023-0.461,0.052-0.672c0.029-0.211,0.075-0.414,0.118-0.599c0.089-0.366,0.188-0.663,0.267-0.87
									c0.081-0.201,0.137-0.32,0.137-0.32s0.085,0.086,0.208,0.24c0.061,0.076,0.137,0.17,0.216,0.283
									c0.08,0.111,0.16,0.245,0.259,0.38c0.095,0.142,0.193,0.297,0.287,0.466c0.047,0.086,0.095,0.174,0.141,0.264
									c0.024,0.048,0.048,0.094,0.071,0.146c0.023,0.042,0.047,0.094,0.07,0.141c0.099,0.192,0.188,0.4,0.273,0.621
									c0.042,0.108,0.079,0.227,0.116,0.344C16.818,56.689,16.861,56.801,16.895,56.924z"/>
								<path fill="#FFDD88" d="M12.792,61.167c0.281,0.099,0.561,0.169,0.828,0.228c0.136,0.022,0.268,0.047,0.4,0.064
									c0.131,0.014,0.263,0.021,0.391,0.033c0.507,0.023,0.968-0.012,1.354-0.061c0.385-0.057,0.71-0.146,0.927-0.213
									c0.221-0.07,0.343-0.123,0.343-0.123s-0.099-0.089-0.277-0.234c-0.179-0.142-0.428-0.354-0.743-0.578
									c-0.16-0.118-0.334-0.235-0.522-0.35c-0.188-0.121-0.386-0.252-0.602-0.371c-0.217-0.121-0.448-0.234-0.688-0.349
									c-0.234-0.116-0.489-0.225-0.753-0.319c-0.264-0.1-0.536-0.17-0.79-0.246c-0.254-0.069-0.509-0.125-0.758-0.174
									c-0.249-0.047-0.489-0.084-0.725-0.107c-0.229-0.028-0.442-0.057-0.64-0.07c-0.399-0.033-0.738-0.042-0.979-0.039
									c-0.235,0-0.376,0.01-0.376,0.01s0.085,0.127,0.245,0.334c0.074,0.107,0.173,0.231,0.286,0.367
									c0.118,0.141,0.249,0.297,0.409,0.447c0.155,0.154,0.33,0.32,0.518,0.484c0.1,0.08,0.198,0.16,0.297,0.244
									c0.051,0.039,0.108,0.08,0.16,0.123c0.052,0.037,0.108,0.075,0.164,0.113c0.23,0.15,0.471,0.301,0.725,0.434
									c0.127,0.07,0.259,0.131,0.392,0.192C12.509,61.068,12.651,61.12,12.792,61.167z"/>
							</g>
							<g>
								<path fill="#FFDD88" d="M13.45,52.661c0.005,0.127,0.005,0.254,0.005,0.381c-0.005,0.127-0.01,0.255-0.01,0.372
									c-0.008,0.245-0.028,0.488-0.056,0.72c-0.033,0.235-0.066,0.461-0.108,0.677c-0.038,0.217-0.075,0.414-0.117,0.603
									c-0.085,0.372-0.175,0.687-0.246,0.909c-0.07,0.216-0.117,0.343-0.117,0.343s-0.089-0.095-0.234-0.276
									c-0.071-0.086-0.156-0.199-0.245-0.326c-0.094-0.131-0.197-0.271-0.292-0.445c-0.188-0.34-0.399-0.74-0.555-1.199
									c-0.07-0.23-0.137-0.477-0.188-0.73c-0.052-0.252-0.095-0.506-0.1-0.785c-0.01-0.268,0.005-0.531,0.028-0.784
									c0.028-0.25,0.065-0.49,0.132-0.726c0.122-0.461,0.282-0.867,0.438-1.201c0.042-0.084,0.08-0.164,0.122-0.239
									c0.043-0.075,0.08-0.146,0.122-0.211c0.076-0.132,0.151-0.244,0.212-0.339c0.127-0.184,0.208-0.281,0.208-0.281
									s0.06,0.098,0.141,0.281c0.08,0.184,0.211,0.434,0.324,0.748c0.062,0.162,0.118,0.334,0.17,0.523
									c0.061,0.184,0.122,0.381,0.169,0.594c0.052,0.211,0.085,0.438,0.122,0.668C13.412,52.167,13.438,52.407,13.45,52.661z"/>
								<path fill="#FFDD88" d="M8.524,55.895c0.128,0.08,0.255,0.149,0.377,0.22c0.065,0.032,0.127,0.065,0.188,0.099
									c0.066,0.029,0.132,0.057,0.193,0.085c0.259,0.109,0.508,0.198,0.752,0.269c0.245,0.069,0.481,0.127,0.701,0.164
									c0.227,0.039,0.442,0.063,0.636,0.076c0.396,0.028,0.72,0.02,0.945,0c0.23-0.014,0.358-0.037,0.358-0.037
									s-0.07-0.112-0.207-0.297c-0.071-0.093-0.161-0.201-0.259-0.324c-0.099-0.121-0.227-0.252-0.349-0.4
									c-0.255-0.3-0.579-0.62-0.945-0.949c-0.18-0.17-0.377-0.339-0.583-0.499c-0.213-0.165-0.443-0.319-0.674-0.476
									c-0.234-0.155-0.475-0.291-0.714-0.414c-0.24-0.126-0.48-0.235-0.707-0.34c-0.456-0.205-0.903-0.361-1.293-0.479
									c-0.099-0.029-0.188-0.057-0.278-0.08c-0.089-0.027-0.174-0.053-0.249-0.076c-0.16-0.041-0.297-0.076-0.414-0.099
									c-0.23-0.058-0.367-0.076-0.367-0.076s0.053,0.146,0.155,0.382c0.1,0.244,0.283,0.568,0.513,0.945
									c0.113,0.188,0.246,0.391,0.396,0.592c0.155,0.198,0.324,0.405,0.508,0.604c0.188,0.201,0.387,0.404,0.603,0.592
									C8.035,55.559,8.274,55.732,8.524,55.895z"/>
							</g>
							<g>
								<path fill="#FFDD88" d="M11.009,47.744c-0.075,0.495-0.216,0.979-0.381,1.425c-0.151,0.438-0.325,0.843-0.494,1.19
									c-0.165,0.349-0.329,0.636-0.438,0.834c-0.108,0.197-0.184,0.306-0.184,0.306s-0.07-0.113-0.174-0.315
									c-0.099-0.207-0.226-0.508-0.349-0.875c-0.131-0.367-0.222-0.813-0.277-1.299c-0.015-0.117-0.028-0.238-0.033-0.367
									c-0.009-0.121-0.004-0.254,0-0.381c0.01-0.259,0.033-0.525,0.08-0.789c0.023-0.132,0.048-0.26,0.081-0.386
									c0.037-0.127,0.074-0.255,0.116-0.372c0.091-0.24,0.184-0.47,0.287-0.677c0.202-0.419,0.461-0.786,0.696-1.073
									c0.236-0.296,0.451-0.517,0.612-0.668c0.16-0.15,0.259-0.227,0.259-0.227s0.155,0.434,0.226,1.105
									c0.056,0.334,0.095,0.725,0.085,1.162C11.136,46.771,11.107,47.241,11.009,47.744z"/>
								<path fill="#FFDD88" d="M5.504,49.796c0.434,0.418,0.885,0.744,1.323,0.993c0.45,0.244,0.889,0.414,1.261,0.531
									c0.376,0.117,0.687,0.184,0.917,0.217c0.23,0.031,0.361,0.037,0.361,0.037S9.32,51.452,9.22,51.241
									c-0.094-0.212-0.23-0.509-0.428-0.847c-0.202-0.34-0.419-0.734-0.711-1.139c-0.07-0.1-0.15-0.203-0.229-0.302
									c-0.081-0.104-0.155-0.207-0.24-0.312c-0.165-0.207-0.343-0.414-0.546-0.615c-0.099-0.1-0.202-0.198-0.306-0.287
									c-0.099-0.098-0.198-0.188-0.302-0.277c-0.202-0.174-0.409-0.339-0.611-0.49c-0.418-0.296-0.805-0.55-1.152-0.756
									c-0.348-0.203-0.654-0.357-0.87-0.462c-0.217-0.099-0.344-0.149-0.344-0.149s0.085,0.602,0.357,1.443
									c0.15,0.419,0.357,0.895,0.621,1.37C4.742,48.893,5.091,49.367,5.504,49.796z"/>
							</g>
							<g>
								<path fill="#FFDD88" d="M9.72,42.405c-0.094,0.229-0.212,0.461-0.324,0.677c-0.113,0.217-0.235,0.424-0.358,0.622
									c-0.248,0.396-0.526,0.757-0.752,1.06c-0.23,0.295-0.447,0.541-0.598,0.709c-0.155,0.166-0.255,0.26-0.255,0.26
									s-0.041-0.127-0.093-0.35c-0.029-0.113-0.063-0.25-0.091-0.404c-0.013-0.08-0.032-0.16-0.042-0.25
									c-0.008-0.088-0.019-0.183-0.022-0.277c-0.019-0.198-0.028-0.409-0.028-0.631c0-0.221,0-0.451,0.037-0.695
									c0.033-0.244,0.076-0.49,0.136-0.744c0.033-0.122,0.066-0.249,0.104-0.371c0.038-0.127,0.095-0.255,0.146-0.377
									c0.108-0.25,0.23-0.479,0.362-0.695c0.132-0.217,0.269-0.414,0.424-0.599c0.306-0.366,0.625-0.664,0.912-0.894
									c0.141-0.118,0.277-0.217,0.405-0.307c0.127-0.084,0.239-0.155,0.339-0.207c0.188-0.113,0.306-0.169,0.306-0.169
									s0.009,0.118,0.009,0.315c-0.004,0.202,0.005,0.484-0.023,0.824c-0.014,0.168-0.042,0.352-0.07,0.545
									c-0.023,0.193-0.057,0.396-0.104,0.607c-0.043,0.211-0.104,0.432-0.179,0.659C9.899,41.938,9.818,42.169,9.72,42.405z"/>
								<path fill="#FFDD88" d="M3.899,43.167c0.165,0.254,0.33,0.485,0.509,0.696c0.188,0.211,0.38,0.398,0.569,0.568
									c0.381,0.344,0.748,0.606,1.101,0.805c0.348,0.193,0.645,0.33,0.856,0.408c0.217,0.086,0.339,0.125,0.339,0.125
									s-0.015-0.133-0.066-0.357c-0.022-0.113-0.056-0.25-0.093-0.405c-0.024-0.075-0.048-0.159-0.071-0.243
									c-0.02-0.086-0.042-0.18-0.071-0.273C6.92,44.302,6.86,44.1,6.784,43.889c-0.075-0.213-0.17-0.434-0.259-0.664
									s-0.192-0.466-0.314-0.707c-0.062-0.121-0.128-0.238-0.198-0.356c-0.07-0.122-0.133-0.244-0.207-0.362
									c-0.146-0.244-0.302-0.47-0.466-0.688c-0.16-0.217-0.339-0.424-0.494-0.611c-0.329-0.385-0.659-0.719-0.96-0.998
									c-0.15-0.136-0.291-0.258-0.419-0.367c-0.122-0.107-0.235-0.198-0.324-0.271c-0.188-0.146-0.301-0.222-0.301-0.222
									s-0.015,0.151-0.023,0.41c-0.01,0.264,0.014,0.637,0.062,1.073c0.022,0.222,0.056,0.457,0.103,0.705
									c0.057,0.246,0.123,0.505,0.203,0.769c0.085,0.262,0.178,0.526,0.291,0.795C3.604,42.654,3.744,42.913,3.899,43.167z"/>
							</g>
							<g>
								<path fill="#FFDD88" d="M9.616,36.896c-0.14,0.206-0.296,0.404-0.461,0.587c-0.16,0.188-0.334,0.363-0.489,0.532
									c-0.325,0.334-0.658,0.622-0.956,0.866c-0.149,0.117-0.296,0.227-0.418,0.32s-0.235,0.173-0.329,0.24
									c-0.184,0.127-0.297,0.197-0.297,0.197s-0.019-0.132-0.023-0.363c-0.01-0.229,0.015-0.56,0.057-0.945
									c0.028-0.193,0.057-0.4,0.104-0.616c0.052-0.216,0.117-0.443,0.198-0.673c0.08-0.231,0.169-0.461,0.281-0.692
									c0.123-0.23,0.26-0.461,0.415-0.677c0.155-0.221,0.314-0.423,0.494-0.602c0.178-0.179,0.366-0.344,0.55-0.49
									c0.377-0.287,0.734-0.508,1.077-0.668c0.339-0.164,0.631-0.268,0.842-0.333c0.208-0.066,0.329-0.094,0.329-0.094
									s-0.009,0.113-0.051,0.306c-0.023,0.099-0.047,0.217-0.085,0.348c-0.019,0.066-0.042,0.137-0.061,0.211
									c-0.02,0.076-0.043,0.151-0.066,0.236c-0.047,0.16-0.104,0.334-0.174,0.517c-0.07,0.179-0.161,0.372-0.24,0.569
									c-0.084,0.198-0.188,0.4-0.306,0.603c-0.062,0.104-0.122,0.207-0.188,0.311C9.748,36.684,9.687,36.792,9.616,36.896z"/>
								<path fill="#FFDD88" d="M3.769,36.36c0.108,0.281,0.226,0.545,0.357,0.79c0.131,0.245,0.264,0.471,0.419,0.683
									c0.306,0.414,0.621,0.752,0.907,1.021c0.146,0.137,0.278,0.25,0.405,0.349c0.127,0.099,0.24,0.184,0.339,0.245
									c0.192,0.131,0.306,0.192,0.306,0.192s0.009-0.132,0.009-0.363c0-0.23,0.01-0.56-0.022-0.949
									c-0.015-0.197-0.038-0.409-0.066-0.631c-0.019-0.226-0.052-0.461-0.094-0.706c-0.043-0.244-0.104-0.499-0.17-0.757
									c-0.061-0.259-0.136-0.527-0.23-0.795c-0.089-0.264-0.202-0.523-0.314-0.772c-0.104-0.244-0.222-0.484-0.339-0.705
									c-0.24-0.447-0.509-0.852-0.729-1.186c-0.226-0.333-0.434-0.603-0.584-0.791c-0.15-0.184-0.244-0.287-0.244-0.287
									s-0.047,0.146-0.108,0.4c-0.028,0.127-0.065,0.282-0.099,0.461c-0.014,0.089-0.038,0.183-0.047,0.282
									c-0.015,0.104-0.023,0.207-0.038,0.32c-0.019,0.221-0.033,0.461-0.038,0.71c-0.004,0.254-0.009,0.518,0.024,0.795
									c0.022,0.273,0.065,0.555,0.122,0.837c0.028,0.146,0.062,0.287,0.099,0.428C3.665,36.072,3.722,36.218,3.769,36.36z"/>
							</g>
							<g>
								<path fill="#FFDD88" d="M10.703,31.504c-0.094,0.085-0.193,0.165-0.287,0.245c-0.095,0.08-0.193,0.155-0.287,0.23
									c-0.192,0.146-0.395,0.282-0.593,0.404c-0.404,0.249-0.78,0.461-1.119,0.63c-0.344,0.169-0.641,0.297-0.852,0.381
									c-0.212,0.085-0.339,0.126-0.339,0.126s0.065-0.531,0.315-1.27c0.141-0.363,0.329-0.776,0.573-1.19
									c0.259-0.409,0.589-0.819,0.974-1.181c0.414-0.353,0.848-0.625,1.262-0.828c0.433-0.193,0.846-0.325,1.209-0.409
									c0.357-0.081,0.658-0.123,0.884-0.137c0.221-0.019,0.349-0.019,0.349-0.019s-0.043,0.108-0.128,0.287
									c-0.074,0.183-0.196,0.438-0.37,0.729c-0.18,0.287-0.372,0.625-0.641,0.964c-0.066,0.09-0.137,0.175-0.212,0.259
									C11.366,30.81,11.3,30.9,11.22,30.989C11.065,31.166,10.896,31.334,10.703,31.504z"/>
								<path fill="#FFDD88" d="M5.123,29.674c0.015,0.15,0.038,0.296,0.066,0.437c0.028,0.142,0.065,0.283,0.104,0.414
									c0.074,0.273,0.165,0.527,0.263,0.762c0.188,0.471,0.438,0.875,0.664,1.2c0.226,0.33,0.438,0.579,0.593,0.743
									c0.155,0.17,0.253,0.26,0.253,0.26s0.17-0.508,0.268-1.289c0.065-0.386,0.123-0.837,0.137-1.341
									c0.028-0.494,0.024-1.03-0.052-1.6c-0.052-0.56-0.17-1.096-0.315-1.59c-0.132-0.49-0.287-0.937-0.438-1.318
									c-0.155-0.376-0.3-0.692-0.404-0.903c-0.104-0.212-0.175-0.334-0.175-0.334s-0.079,0.131-0.196,0.362
									c-0.108,0.24-0.259,0.583-0.399,0.998c-0.156,0.419-0.269,0.922-0.35,1.467c-0.019,0.137-0.037,0.273-0.051,0.415
									c-0.015,0.141-0.015,0.287-0.015,0.433C5.071,29.082,5.086,29.377,5.123,29.674z"/>
							</g>
							<g>
								<path fill="#FFDD88" d="M12.947,26.494c-0.217,0.127-0.442,0.235-0.668,0.334c-0.226,0.099-0.457,0.183-0.668,0.264
									c-0.434,0.159-0.856,0.277-1.232,0.361c-0.188,0.042-0.357,0.076-0.509,0.108c-0.15,0.033-0.287,0.056-0.4,0.076
									c-0.22,0.037-0.352,0.047-0.352,0.047s0.042-0.127,0.132-0.338c0.083-0.212,0.249-0.499,0.455-0.824
									c0.104-0.165,0.222-0.338,0.354-0.517c0.141-0.169,0.296-0.344,0.466-0.518c0.169-0.174,0.348-0.343,0.55-0.503
									c0.207-0.155,0.429-0.301,0.659-0.428c0.118-0.066,0.235-0.127,0.348-0.183c0.062-0.023,0.118-0.052,0.18-0.075
									c0.056-0.024,0.118-0.047,0.178-0.066c0.24-0.085,0.476-0.151,0.706-0.203c0.227-0.052,0.447-0.084,0.659-0.108
									c0.206-0.019,0.413-0.029,0.602-0.029c0.372,0.005,0.683,0.033,0.895,0.066c0.216,0.029,0.343,0.057,0.343,0.057
									s-0.061,0.099-0.179,0.258c-0.061,0.08-0.136,0.174-0.226,0.278c-0.085,0.103-0.198,0.216-0.306,0.343
									c-0.217,0.254-0.509,0.527-0.838,0.8c-0.159,0.142-0.339,0.282-0.531,0.414C13.371,26.245,13.158,26.367,12.947,26.494z"/>
								<path fill="#FFDD88" d="M7.904,23.459c-0.028,0.301-0.033,0.592-0.019,0.87c0.008,0.278,0.037,0.541,0.089,0.8
									c0.094,0.508,0.235,0.95,0.381,1.317c0.032,0.094,0.07,0.179,0.104,0.264c0.043,0.08,0.08,0.16,0.117,0.23
									c0.07,0.146,0.142,0.269,0.198,0.367c0.118,0.203,0.197,0.31,0.197,0.31s0.065-0.117,0.16-0.329
									c0.094-0.212,0.244-0.499,0.381-0.866c0.075-0.184,0.146-0.386,0.212-0.603c0.075-0.207,0.15-0.433,0.216-0.673
									s0.118-0.498,0.17-0.757c0.056-0.263,0.099-0.531,0.132-0.818c0.014-0.142,0.023-0.282,0.028-0.418
									c0.009-0.141,0.014-0.278,0.019-0.414c0.01-0.27,0.005-0.532-0.01-0.786c-0.014-0.259-0.037-0.503-0.065-0.739
									c-0.023-0.23-0.052-0.446-0.085-0.649c-0.062-0.4-0.132-0.734-0.192-0.965c-0.057-0.235-0.099-0.367-0.099-0.367
									s-0.104,0.108-0.269,0.315c-0.08,0.099-0.174,0.227-0.282,0.373c-0.104,0.146-0.227,0.31-0.335,0.503
									c-0.221,0.381-0.461,0.833-0.653,1.35c-0.095,0.259-0.179,0.532-0.25,0.814C7.983,22.871,7.923,23.158,7.904,23.459z"/>
							</g>
							<g>
								<path fill="#FFDD88" d="M16.231,22.104c-0.24,0.076-0.494,0.123-0.73,0.175c-0.234,0.046-0.47,0.084-0.7,0.113
									c-0.234,0.028-0.461,0.042-0.677,0.056c-0.218,0.01-0.415,0.019-0.607,0.023c-0.377,0.005-0.701-0.009-0.927-0.028
									c-0.226-0.014-0.358-0.033-0.358-0.033s0.071-0.112,0.207-0.296c0.07-0.089,0.155-0.197,0.259-0.319
									c0.1-0.118,0.217-0.259,0.358-0.391c0.141-0.132,0.297-0.273,0.465-0.414c0.085-0.071,0.175-0.142,0.265-0.212
									c0.047-0.033,0.093-0.066,0.141-0.104c0.052-0.033,0.104-0.061,0.155-0.094c0.202-0.127,0.423-0.254,0.653-0.362
									c0.113-0.056,0.23-0.108,0.354-0.155c0.117-0.047,0.249-0.084,0.376-0.122c0.259-0.075,0.513-0.127,0.763-0.16
									c0.122-0.014,0.244-0.028,0.366-0.038c0.122-0.005,0.245-0.005,0.362-0.005c0.471,0.009,0.899,0.071,1.257,0.146
									c0.362,0.081,0.663,0.188,0.866,0.264c0.206,0.08,0.318,0.136,0.318,0.136s-0.079,0.08-0.234,0.207
									c-0.156,0.118-0.367,0.306-0.645,0.494c-0.137,0.099-0.292,0.193-0.461,0.292c-0.165,0.103-0.339,0.207-0.531,0.306
									c-0.188,0.099-0.396,0.188-0.616,0.278C16.696,21.949,16.471,22.034,16.231,22.104z"/>
								<path fill="#FFDD88" d="M11.969,18.025c-0.095,0.288-0.169,0.56-0.212,0.838c-0.048,0.277-0.07,0.55-0.08,0.804
									c-0.014,0.258-0.009,0.498,0.005,0.729c0.015,0.226,0.042,0.447,0.075,0.64c0.07,0.396,0.155,0.715,0.226,0.936
									c0.065,0.216,0.117,0.338,0.117,0.338s0.095-0.099,0.236-0.277c0.074-0.09,0.159-0.197,0.249-0.33
									c0.094-0.126,0.192-0.277,0.306-0.438c0.112-0.159,0.23-0.338,0.344-0.531c0.061-0.094,0.118-0.193,0.174-0.301
									c0.029-0.051,0.057-0.103,0.085-0.155c0.027-0.056,0.061-0.108,0.089-0.16c0.118-0.221,0.236-0.452,0.339-0.697
									c0.052-0.122,0.104-0.249,0.155-0.381c0.048-0.127,0.099-0.254,0.146-0.39c0.09-0.264,0.165-0.532,0.231-0.8
									c0.028-0.132,0.056-0.264,0.08-0.396c0.027-0.127,0.052-0.254,0.074-0.381c0.09-0.499,0.133-0.969,0.155-1.383
									c0.019-0.409,0.029-0.743,0.024-0.983c-0.006-0.24-0.02-0.376-0.02-0.376s-0.122,0.085-0.329,0.24
									c-0.207,0.155-0.484,0.41-0.786,0.725c-0.155,0.16-0.314,0.338-0.475,0.527c-0.155,0.197-0.311,0.418-0.461,0.645
									c-0.146,0.231-0.292,0.475-0.423,0.734C12.17,17.466,12.058,17.738,11.969,18.025z"/>
							</g>
							<g>
								<path fill="#FFDD88" d="M20.381,18.542c-0.499,0.038-0.993,0.02-1.458-0.037c-0.461-0.047-0.891-0.118-1.267-0.203
									c-0.371-0.08-0.688-0.174-0.898-0.235c-0.217-0.061-0.343-0.108-0.343-0.108s0.022-0.024,0.07-0.066
									c0.042-0.042,0.104-0.107,0.192-0.178c0.179-0.146,0.438-0.344,0.763-0.551c0.649-0.414,1.599-0.833,2.667-0.904
									c0.259-0.022,0.527-0.004,0.776,0.021c0.249,0.028,0.489,0.064,0.72,0.117c0.113,0.028,0.221,0.057,0.33,0.09
									c0.107,0.033,0.211,0.07,0.311,0.107c0.202,0.071,0.385,0.151,0.554,0.231c0.335,0.16,0.604,0.319,0.782,0.442
									c0.089,0.057,0.159,0.108,0.211,0.146c0.047,0.038,0.071,0.057,0.071,0.057s-0.099,0.057-0.269,0.155
									c-0.174,0.094-0.424,0.216-0.738,0.334c-0.16,0.057-0.325,0.132-0.509,0.193c-0.184,0.062-0.376,0.118-0.589,0.169
									c-0.051,0.01-0.107,0.023-0.159,0.033c-0.052,0.015-0.107,0.029-0.159,0.042c-0.109,0.023-0.222,0.047-0.335,0.066
									C20.875,18.501,20.63,18.529,20.381,18.542z"/>
								<path fill="#FFDD88" d="M17.102,13.617c-0.296,0.522-0.499,1.049-0.64,1.538c-0.132,0.499-0.184,0.965-0.212,1.36
									c-0.019,0.4-0.01,0.72,0.014,0.955c0.023,0.231,0.048,0.362,0.048,0.362s0.027-0.019,0.075-0.056
									c0.051-0.038,0.117-0.099,0.212-0.166c0.178-0.141,0.433-0.348,0.71-0.62c0.568-0.537,1.275-1.289,1.862-2.259
									c0.141-0.249,0.277-0.484,0.399-0.729c0.118-0.24,0.228-0.485,0.32-0.72c0.048-0.122,0.09-0.24,0.132-0.353
									c0.048-0.113,0.085-0.226,0.122-0.334c0.081-0.222,0.142-0.429,0.198-0.626c0.112-0.39,0.188-0.729,0.235-0.964
									c0.023-0.117,0.038-0.211,0.052-0.272c0.009-0.066,0.014-0.099,0.014-0.099s-0.037,0.014-0.099,0.037
									c-0.065,0.029-0.16,0.071-0.277,0.132c-0.23,0.113-0.555,0.292-0.927,0.526c-0.188,0.114-0.372,0.264-0.569,0.419
									c-0.197,0.156-0.395,0.329-0.598,0.518c-0.047,0.047-0.094,0.094-0.146,0.146c-0.047,0.047-0.093,0.099-0.141,0.155
									c-0.095,0.103-0.188,0.211-0.277,0.329C17.431,13.123,17.257,13.363,17.102,13.617z"/>
							</g>
							<path fill="#FFDD88" d="M23.392,11.542c-0.259,0.151-0.499,0.311-0.716,0.48c-0.107,0.085-0.211,0.175-0.31,0.264
								c-0.1,0.094-0.193,0.188-0.283,0.277c-0.353,0.372-0.629,0.739-0.842,1.072c-0.211,0.344-0.357,0.64-0.451,0.847
								c-0.095,0.217-0.132,0.339-0.132,0.339s0.132-0.009,0.353-0.047c0.112-0.023,0.249-0.047,0.404-0.084
								c0.155-0.029,0.33-0.061,0.519-0.108c0.376-0.09,0.809-0.23,1.273-0.386c0.231-0.085,0.472-0.179,0.712-0.296
								c0.061-0.028,0.122-0.057,0.184-0.085c0.061-0.028,0.122-0.057,0.183-0.084c0.122-0.061,0.245-0.127,0.367-0.192
								c0.244-0.137,0.479-0.288,0.701-0.443c0.222-0.16,0.433-0.306,0.631-0.466c0.395-0.31,0.742-0.639,1.029-0.926
								c0.287-0.278,0.518-0.527,0.673-0.71c0.155-0.179,0.235-0.292,0.235-0.292s-0.146-0.023-0.405-0.042
								c-0.131-0.009-0.286-0.02-0.465-0.023c-0.179-0.005-0.381,0.009-0.603,0.023c-0.217,0.014-0.451,0.042-0.701,0.076
								c-0.122,0.019-0.249,0.037-0.376,0.065c-0.128,0.028-0.259,0.061-0.391,0.094C24.454,11.039,23.904,11.232,23.392,11.542z"/>
						</g>
						<g>
							<g>
								<path fill="#FFDD88" d="M51.271,60.32c-0.112,0.23-0.226,0.445-0.319,0.673c-0.095,0.229-0.175,0.456-0.245,0.682
									c-0.037,0.113-0.07,0.226-0.104,0.334c-0.032,0.108-0.065,0.216-0.094,0.319c-0.057,0.207-0.104,0.408-0.141,0.599
									c-0.085,0.371-0.132,0.695-0.165,0.927c-0.014,0.117-0.024,0.207-0.033,0.268c-0.005,0.063-0.01,0.094-0.01,0.094
									s0.033-0.014,0.09-0.033c0.057-0.023,0.141-0.065,0.24-0.113c0.203-0.104,0.489-0.258,0.813-0.469
									c0.165-0.099,0.325-0.235,0.494-0.377c0.17-0.142,0.343-0.296,0.513-0.471c0.043-0.042,0.085-0.084,0.127-0.126
									c0.042-0.047,0.08-0.094,0.123-0.146c0.074-0.095,0.155-0.198,0.229-0.301c0.155-0.207,0.297-0.429,0.424-0.664
									c0.244-0.483,0.399-0.979,0.494-1.436c0.089-0.466,0.113-0.907,0.108-1.284c-0.005-0.371-0.033-0.677-0.071-0.897
									c-0.037-0.223-0.07-0.349-0.07-0.349s-0.023,0.015-0.066,0.048c-0.041,0.032-0.099,0.084-0.178,0.141
									c-0.161,0.123-0.376,0.302-0.612,0.542C52.335,58.749,51.741,59.421,51.271,60.32z"/>
								<path fill="#FFDD88" d="M54.357,65.368c-0.292,0.042-0.588,0.042-0.861,0.032c-0.277-0.01-0.541-0.037-0.791-0.075
									c-0.126-0.023-0.243-0.042-0.361-0.07c-0.122-0.028-0.235-0.057-0.344-0.089c-0.221-0.066-0.424-0.137-0.606-0.208
									c-0.367-0.146-0.654-0.292-0.852-0.405c-0.099-0.057-0.18-0.104-0.231-0.137c-0.051-0.037-0.079-0.057-0.079-0.057
									s0.117-0.063,0.314-0.174c0.203-0.108,0.494-0.254,0.856-0.396c0.185-0.07,0.372-0.16,0.583-0.235
									c0.207-0.074,0.434-0.15,0.674-0.216c0.057-0.019,0.116-0.032,0.179-0.046c0.062-0.02,0.122-0.039,0.184-0.057
									c0.122-0.033,0.248-0.065,0.376-0.094c0.259-0.057,0.527-0.104,0.809-0.133c0.551-0.08,1.092-0.094,1.604-0.07
									c0.505,0.02,0.964,0.061,1.365,0.123c0.398,0.062,0.738,0.138,0.964,0.184c0.23,0.052,0.357,0.094,0.357,0.094
									s-0.023,0.024-0.075,0.075c-0.052,0.047-0.122,0.123-0.226,0.203c-0.198,0.165-0.494,0.39-0.861,0.636
									c-0.089,0.057-0.188,0.117-0.287,0.178c-0.104,0.062-0.211,0.117-0.319,0.174c-0.227,0.117-0.467,0.227-0.715,0.33
									c-0.128,0.053-0.255,0.104-0.387,0.15c-0.136,0.042-0.272,0.081-0.413,0.118C54.936,65.273,54.648,65.331,54.357,65.368z"/>
							</g>
							<g>
								<path fill="#FFDD88" d="M55.557,56.924c-0.07,0.245-0.122,0.489-0.164,0.733c-0.02,0.122-0.038,0.245-0.053,0.366
									c-0.013,0.119-0.027,0.235-0.042,0.354c-0.052,0.465-0.062,0.907-0.056,1.298c0.004,0.386,0.019,0.702,0.037,0.933
									c0.019,0.23,0.037,0.36,0.037,0.36s0.113-0.073,0.292-0.211c0.184-0.136,0.424-0.356,0.687-0.639
									c0.133-0.142,0.273-0.302,0.409-0.472c0.137-0.174,0.265-0.371,0.391-0.578c0.128-0.207,0.25-0.428,0.354-0.663
									c0.099-0.24,0.188-0.489,0.259-0.748c0.07-0.263,0.122-0.513,0.146-0.771c0.022-0.254,0.031-0.503,0.027-0.739
									c-0.005-0.234-0.023-0.461-0.052-0.672c-0.029-0.211-0.075-0.414-0.118-0.599c-0.089-0.366-0.188-0.663-0.267-0.87
									c-0.081-0.201-0.143-0.32-0.143-0.32s-0.079,0.086-0.202,0.24c-0.061,0.076-0.137,0.17-0.216,0.283
									c-0.08,0.111-0.16,0.245-0.259,0.38c-0.095,0.142-0.193,0.297-0.287,0.466c-0.047,0.086-0.095,0.174-0.141,0.264
									c-0.024,0.048-0.048,0.094-0.071,0.146c-0.023,0.042-0.047,0.094-0.07,0.141c-0.099,0.192-0.188,0.4-0.273,0.621
									c-0.042,0.108-0.079,0.227-0.116,0.344C55.633,56.689,55.59,56.801,55.557,56.924z"/>
								<path fill="#FFDD88" d="M59.659,61.167c-0.281,0.099-0.561,0.169-0.828,0.228c-0.136,0.022-0.268,0.047-0.4,0.064
									c-0.131,0.014-0.263,0.021-0.391,0.033c-0.507,0.023-0.968-0.012-1.354-0.061c-0.385-0.057-0.71-0.146-0.927-0.213
									c-0.221-0.07-0.343-0.123-0.343-0.123s0.099-0.089,0.277-0.234c0.179-0.142,0.428-0.354,0.743-0.578
									c0.16-0.118,0.334-0.235,0.522-0.35c0.188-0.121,0.386-0.252,0.602-0.371c0.217-0.121,0.448-0.234,0.688-0.349
									c0.234-0.116,0.489-0.225,0.753-0.319c0.264-0.1,0.536-0.17,0.79-0.246c0.254-0.069,0.509-0.125,0.758-0.174
									c0.249-0.047,0.489-0.084,0.725-0.107c0.229-0.028,0.437-0.057,0.64-0.07c0.399-0.033,0.738-0.042,0.979-0.039
									c0.235,0,0.371,0.01,0.371,0.01s-0.08,0.127-0.235,0.334c-0.079,0.107-0.178,0.231-0.291,0.367
									c-0.118,0.141-0.249,0.297-0.409,0.447c-0.155,0.154-0.33,0.32-0.518,0.484c-0.1,0.08-0.198,0.16-0.302,0.244
									c-0.046,0.039-0.104,0.08-0.155,0.123c-0.056,0.037-0.108,0.075-0.164,0.113c-0.23,0.15-0.471,0.301-0.725,0.434
									c-0.127,0.07-0.259,0.131-0.392,0.192C59.942,61.068,59.8,61.12,59.659,61.167z"/>
							</g>
							<g>
								<path fill="#FFDD88" d="M59.001,52.661c-0.005,0.127-0.005,0.254-0.005,0.381c0.005,0.127,0.01,0.255,0.01,0.372
									c0.008,0.245,0.028,0.488,0.056,0.72c0.033,0.235,0.066,0.461,0.108,0.677c0.038,0.217,0.075,0.414,0.117,0.603
									c0.085,0.372,0.175,0.687,0.245,0.909c0.071,0.216,0.118,0.343,0.118,0.343s0.089-0.095,0.234-0.276
									c0.071-0.086,0.156-0.199,0.245-0.326c0.094-0.131,0.197-0.271,0.292-0.445c0.188-0.34,0.395-0.74,0.555-1.199
									c0.07-0.23,0.137-0.477,0.188-0.73c0.052-0.252,0.095-0.506,0.1-0.785c0.01-0.268-0.005-0.531-0.028-0.784
									c-0.028-0.25-0.065-0.49-0.132-0.726c-0.122-0.461-0.278-0.867-0.442-1.201c-0.037-0.084-0.075-0.164-0.117-0.239
									c-0.043-0.075-0.08-0.146-0.122-0.211c-0.081-0.132-0.151-0.244-0.212-0.339c-0.127-0.184-0.208-0.281-0.208-0.281
									s-0.06,0.098-0.141,0.281c-0.08,0.184-0.211,0.434-0.324,0.748c-0.062,0.162-0.117,0.334-0.17,0.523
									c-0.061,0.184-0.122,0.381-0.169,0.594c-0.052,0.211-0.085,0.438-0.122,0.668C59.039,52.167,59.014,52.407,59.001,52.661z"
									/>
								<path fill="#FFDD88" d="M63.927,55.895c-0.128,0.08-0.255,0.149-0.377,0.22c-0.065,0.032-0.127,0.065-0.188,0.099
									c-0.065,0.029-0.131,0.057-0.192,0.085c-0.259,0.109-0.508,0.198-0.752,0.269c-0.245,0.069-0.481,0.127-0.701,0.164
									c-0.227,0.039-0.442,0.063-0.636,0.076c-0.396,0.028-0.72,0.02-0.95,0c-0.226-0.014-0.354-0.037-0.354-0.037
									s0.07-0.112,0.207-0.297c0.071-0.093,0.155-0.201,0.259-0.324c0.099-0.121,0.227-0.252,0.35-0.4
									c0.254-0.3,0.578-0.62,0.944-0.949c0.18-0.17,0.377-0.339,0.583-0.499c0.213-0.165,0.442-0.319,0.674-0.476
									c0.234-0.155,0.475-0.291,0.714-0.414c0.24-0.126,0.48-0.235,0.707-0.34c0.455-0.205,0.903-0.361,1.293-0.479
									c0.095-0.029,0.188-0.057,0.278-0.08c0.089-0.027,0.174-0.053,0.249-0.076c0.16-0.041,0.297-0.076,0.414-0.099
									c0.23-0.058,0.367-0.076,0.367-0.076s-0.053,0.146-0.155,0.382c-0.1,0.244-0.283,0.568-0.513,0.945
									c-0.113,0.188-0.246,0.391-0.396,0.592c-0.155,0.198-0.324,0.405-0.509,0.604c-0.188,0.201-0.386,0.404-0.602,0.592
									C64.416,55.559,64.177,55.732,63.927,55.895z"/>
							</g>
							<g>
								<path fill="#FFDD88" d="M61.442,47.744c0.075,0.495,0.216,0.979,0.381,1.425c0.151,0.438,0.325,0.843,0.494,1.19
									c0.165,0.349,0.324,0.636,0.438,0.834c0.108,0.197,0.184,0.306,0.184,0.306s0.07-0.113,0.18-0.315
									c0.093-0.207,0.22-0.508,0.343-0.875c0.131-0.367,0.222-0.813,0.277-1.299c0.015-0.117,0.023-0.238,0.033-0.367
									c0.009-0.121,0.004-0.254,0-0.381c-0.01-0.259-0.033-0.525-0.08-0.789c-0.023-0.132-0.048-0.26-0.081-0.386
									c-0.037-0.127-0.074-0.255-0.116-0.372c-0.09-0.24-0.184-0.47-0.293-0.677c-0.196-0.419-0.455-0.786-0.69-1.073
									c-0.236-0.296-0.451-0.517-0.612-0.668c-0.16-0.15-0.259-0.227-0.259-0.227s-0.155,0.434-0.226,1.105
									c-0.056,0.334-0.095,0.725-0.085,1.162C61.315,46.771,61.344,47.241,61.442,47.744z"/>
								<path fill="#FFDD88" d="M66.947,49.796c-0.434,0.418-0.885,0.744-1.323,0.993c-0.45,0.244-0.889,0.414-1.261,0.531
									c-0.376,0.117-0.687,0.184-0.921,0.217c-0.227,0.031-0.357,0.037-0.357,0.037s0.046-0.122,0.146-0.333
									c0.094-0.212,0.235-0.509,0.428-0.847c0.202-0.34,0.419-0.734,0.711-1.139c0.07-0.1,0.146-0.203,0.229-0.302
									c0.081-0.104,0.155-0.207,0.235-0.312c0.17-0.207,0.348-0.414,0.551-0.615c0.099-0.1,0.202-0.198,0.306-0.287
									c0.099-0.098,0.198-0.188,0.302-0.277c0.202-0.174,0.409-0.339,0.611-0.49c0.418-0.296,0.805-0.55,1.152-0.756
									c0.348-0.203,0.653-0.357,0.87-0.462c0.217-0.099,0.344-0.149,0.344-0.149s-0.085,0.602-0.354,1.443
									c-0.154,0.419-0.361,0.895-0.625,1.37C67.709,48.893,67.36,49.367,66.947,49.796z"/>
							</g>
							<g>
								<path fill="#FFDD88" d="M62.731,42.405c0.094,0.229,0.211,0.461,0.324,0.677c0.113,0.217,0.23,0.424,0.358,0.622
									c0.248,0.396,0.526,0.757,0.752,1.06c0.23,0.295,0.447,0.541,0.598,0.709c0.155,0.166,0.255,0.26,0.255,0.26
									s0.041-0.127,0.093-0.35c0.029-0.113,0.063-0.25,0.091-0.404c0.013-0.08,0.032-0.16,0.041-0.25
									c0.009-0.088,0.02-0.183,0.023-0.277c0.019-0.198,0.028-0.409,0.028-0.631c0-0.221,0-0.451-0.037-0.695
									c-0.033-0.244-0.076-0.49-0.136-0.744c-0.033-0.122-0.066-0.249-0.104-0.371c-0.038-0.127-0.095-0.255-0.147-0.377
									c-0.107-0.25-0.229-0.479-0.361-0.695c-0.132-0.217-0.269-0.414-0.424-0.599c-0.306-0.366-0.625-0.664-0.912-0.894
									c-0.141-0.118-0.277-0.217-0.405-0.307c-0.127-0.084-0.239-0.155-0.339-0.207c-0.188-0.113-0.306-0.169-0.306-0.169
									s-0.009,0.118-0.009,0.315c0.004,0.202-0.005,0.484,0.023,0.824c0.014,0.168,0.042,0.352,0.07,0.545
									c0.023,0.193,0.057,0.396,0.104,0.607c0.043,0.211,0.104,0.432,0.175,0.659C62.552,41.938,62.633,42.169,62.731,42.405z"/>
								<path fill="#FFDD88" d="M68.546,43.167c-0.159,0.254-0.324,0.485-0.507,0.696c-0.184,0.211-0.378,0.398-0.566,0.568
									c-0.38,0.344-0.747,0.606-1.1,0.805c-0.348,0.193-0.645,0.33-0.856,0.408c-0.217,0.086-0.339,0.125-0.339,0.125
									s0.015-0.133,0.065-0.357c0.023-0.113,0.057-0.25,0.094-0.405c0.024-0.075,0.048-0.159,0.071-0.243
									c0.02-0.086,0.042-0.18,0.071-0.273c0.052-0.188,0.112-0.391,0.188-0.602c0.075-0.213,0.17-0.434,0.259-0.664
									c0.089-0.23,0.192-0.466,0.314-0.707c0.062-0.121,0.128-0.238,0.198-0.356c0.07-0.122,0.133-0.244,0.207-0.362
									c0.146-0.244,0.302-0.47,0.466-0.688c0.16-0.217,0.339-0.424,0.494-0.611c0.329-0.385,0.659-0.719,0.96-0.998
									c0.15-0.136,0.291-0.258,0.419-0.367c0.122-0.107,0.235-0.198,0.324-0.271c0.188-0.146,0.301-0.222,0.301-0.222
									s0.015,0.151,0.023,0.41c0.009,0.264-0.014,0.637-0.062,1.073c-0.022,0.222-0.056,0.457-0.104,0.705
									c-0.056,0.246-0.122,0.505-0.202,0.769c-0.085,0.262-0.178,0.526-0.291,0.795C68.848,42.654,68.707,42.913,68.546,43.167z"
									/>
							</g>
							<g>
								<path fill="#FFDD88" d="M62.835,36.896c0.141,0.207,0.296,0.405,0.461,0.588c0.16,0.188,0.334,0.363,0.489,0.532
									c0.325,0.334,0.658,0.622,0.956,0.866c0.149,0.117,0.296,0.226,0.418,0.32c0.122,0.094,0.235,0.173,0.329,0.239
									c0.184,0.127,0.297,0.197,0.297,0.197s0.014-0.131,0.023-0.361c0.009-0.231-0.015-0.561-0.057-0.946
									c-0.023-0.193-0.057-0.4-0.104-0.616c-0.052-0.216-0.117-0.443-0.198-0.673c-0.08-0.231-0.169-0.461-0.281-0.692
									c-0.123-0.23-0.26-0.461-0.415-0.677c-0.155-0.221-0.314-0.423-0.494-0.602c-0.178-0.179-0.366-0.344-0.55-0.49
									c-0.377-0.287-0.734-0.508-1.077-0.668c-0.339-0.164-0.631-0.268-0.842-0.333c-0.208-0.066-0.329-0.094-0.329-0.094
									s0.009,0.113,0.051,0.306c0.023,0.099,0.047,0.217,0.085,0.348c0.02,0.066,0.042,0.137,0.061,0.211
									c0.02,0.076,0.043,0.151,0.066,0.236c0.047,0.16,0.104,0.334,0.174,0.517c0.07,0.179,0.161,0.372,0.24,0.569
									c0.084,0.198,0.188,0.4,0.306,0.603c0.062,0.104,0.122,0.207,0.188,0.311C62.703,36.684,62.765,36.792,62.835,36.896z"/>
								<path fill="#FFDD88" d="M68.683,36.36c-0.108,0.281-0.226,0.545-0.357,0.79c-0.131,0.245-0.264,0.471-0.419,0.683
									c-0.306,0.414-0.621,0.752-0.907,1.021c-0.146,0.137-0.278,0.25-0.405,0.349c-0.127,0.099-0.244,0.184-0.339,0.245
									c-0.192,0.131-0.306,0.192-0.306,0.192s-0.009-0.132-0.009-0.363c0-0.23-0.01-0.56,0.022-0.949
									c0.015-0.197,0.038-0.409,0.066-0.631c0.019-0.226,0.052-0.461,0.094-0.706c0.043-0.244,0.104-0.499,0.17-0.757
									c0.061-0.259,0.136-0.527,0.23-0.795c0.089-0.264,0.202-0.523,0.314-0.772c0.104-0.244,0.222-0.484,0.339-0.705
									c0.24-0.447,0.509-0.852,0.729-1.186c0.226-0.333,0.434-0.603,0.584-0.791c0.15-0.184,0.244-0.287,0.244-0.287
									s0.047,0.146,0.108,0.4c0.027,0.127,0.065,0.282,0.099,0.461c0.014,0.089,0.038,0.183,0.047,0.282
									c0.015,0.104,0.023,0.207,0.038,0.32c0.019,0.221,0.032,0.461,0.038,0.71c0.004,0.254,0.009,0.518-0.024,0.795
									c-0.022,0.273-0.065,0.555-0.122,0.837c-0.028,0.146-0.062,0.287-0.099,0.428C68.786,36.072,68.729,36.218,68.683,36.36z"/>
							</g>
							<g>
								<path fill="#FFDD88" d="M61.748,31.504c0.094,0.085,0.193,0.165,0.287,0.245c0.095,0.08,0.193,0.155,0.287,0.23
									c0.197,0.146,0.395,0.282,0.593,0.404c0.404,0.249,0.78,0.461,1.119,0.63c0.339,0.169,0.641,0.297,0.852,0.381
									c0.212,0.085,0.339,0.126,0.339,0.126s-0.065-0.531-0.315-1.27c-0.141-0.363-0.329-0.776-0.573-1.19
									c-0.259-0.409-0.589-0.819-0.975-1.181c-0.413-0.353-0.847-0.625-1.261-0.828c-0.433-0.193-0.846-0.325-1.209-0.409
									c-0.357-0.081-0.658-0.123-0.884-0.137c-0.221-0.019-0.349-0.019-0.349-0.019s0.043,0.108,0.128,0.287
									c0.074,0.183,0.196,0.438,0.366,0.729c0.184,0.287,0.376,0.625,0.645,0.964c0.066,0.09,0.137,0.175,0.212,0.259
									c0.075,0.085,0.141,0.175,0.221,0.264C61.386,31.166,61.555,31.334,61.748,31.504z"/>
								<path fill="#FFDD88" d="M67.328,29.674c-0.015,0.15-0.038,0.296-0.066,0.437c-0.028,0.142-0.065,0.283-0.104,0.414
									c-0.074,0.273-0.165,0.527-0.263,0.762c-0.188,0.471-0.438,0.875-0.664,1.2c-0.226,0.33-0.438,0.579-0.593,0.743
									c-0.155,0.169-0.254,0.259-0.254,0.259s-0.17-0.508-0.268-1.289c-0.066-0.386-0.123-0.837-0.137-1.341
									c-0.028-0.494-0.024-1.03,0.052-1.6c0.052-0.56,0.17-1.096,0.315-1.59c0.132-0.49,0.286-0.937,0.438-1.318
									c0.155-0.376,0.306-0.692,0.404-0.903c0.104-0.212,0.175-0.334,0.175-0.334s0.079,0.131,0.196,0.362
									c0.108,0.24,0.259,0.583,0.399,0.998c0.156,0.419,0.269,0.922,0.35,1.467c0.019,0.137,0.037,0.273,0.051,0.415
									c0.015,0.141,0.015,0.287,0.015,0.433C67.38,29.082,67.365,29.377,67.328,29.674z"/>
							</g>
							<g>
								<path fill="#FFDD88" d="M59.504,26.494c0.217,0.127,0.442,0.235,0.668,0.334c0.226,0.099,0.452,0.183,0.668,0.264
									c0.434,0.159,0.856,0.277,1.232,0.361c0.188,0.042,0.357,0.076,0.509,0.108c0.15,0.033,0.287,0.056,0.395,0.076
									c0.226,0.037,0.357,0.047,0.357,0.047s-0.042-0.127-0.132-0.338c-0.083-0.212-0.249-0.499-0.455-0.824
									c-0.104-0.165-0.222-0.338-0.354-0.517c-0.141-0.169-0.296-0.344-0.466-0.518c-0.169-0.174-0.348-0.343-0.55-0.503
									c-0.207-0.155-0.429-0.301-0.659-0.428c-0.118-0.066-0.235-0.127-0.354-0.183c-0.056-0.023-0.112-0.052-0.174-0.075
									c-0.056-0.024-0.118-0.047-0.178-0.066c-0.24-0.085-0.476-0.151-0.706-0.203c-0.227-0.052-0.447-0.084-0.659-0.108
									c-0.211-0.019-0.413-0.029-0.602-0.029c-0.372,0.005-0.678,0.033-0.895,0.066c-0.216,0.029-0.343,0.057-0.343,0.057
									s0.061,0.099,0.179,0.258c0.061,0.08,0.136,0.174,0.226,0.278c0.085,0.103,0.198,0.216,0.306,0.343
									c0.217,0.254,0.509,0.527,0.838,0.8c0.159,0.142,0.339,0.282,0.531,0.414C59.08,26.245,59.293,26.367,59.504,26.494z"/>
								<path fill="#FFDD88" d="M64.547,23.459c0.028,0.301,0.033,0.592,0.019,0.87c-0.008,0.278-0.037,0.541-0.089,0.8
									c-0.094,0.508-0.235,0.95-0.381,1.317c-0.032,0.094-0.07,0.179-0.108,0.264c-0.038,0.08-0.075,0.16-0.107,0.23
									c-0.075,0.146-0.146,0.269-0.203,0.367c-0.118,0.203-0.197,0.31-0.197,0.31s-0.065-0.117-0.16-0.329
									c-0.094-0.212-0.244-0.499-0.381-0.866c-0.075-0.184-0.146-0.386-0.212-0.603c-0.075-0.207-0.15-0.433-0.216-0.673
									c-0.066-0.24-0.118-0.498-0.17-0.757c-0.056-0.263-0.104-0.531-0.132-0.818c-0.014-0.142-0.023-0.282-0.028-0.418
									c-0.009-0.141-0.014-0.278-0.019-0.414c-0.01-0.27-0.005-0.532,0.01-0.786c0.014-0.259,0.037-0.503,0.065-0.739
									c0.023-0.23,0.052-0.446,0.085-0.649c0.062-0.4,0.132-0.734,0.192-0.965c0.057-0.235,0.099-0.367,0.099-0.367
									s0.104,0.108,0.269,0.315c0.08,0.099,0.174,0.227,0.282,0.373c0.104,0.146,0.227,0.31,0.335,0.503
									c0.221,0.381,0.465,0.833,0.653,1.35c0.095,0.259,0.179,0.532,0.25,0.814C64.468,22.871,64.528,23.158,64.547,23.459z"/>
							</g>
							<g>
								<path fill="#FFDD88" d="M56.22,22.104c0.24,0.076,0.494,0.123,0.73,0.175c0.234,0.046,0.47,0.084,0.7,0.113
									c0.234,0.028,0.461,0.042,0.677,0.056c0.218,0.01,0.415,0.019,0.607,0.023c0.377,0.005,0.701-0.009,0.927-0.028
									c0.226-0.014,0.358-0.033,0.358-0.033s-0.071-0.112-0.207-0.296c-0.07-0.089-0.155-0.197-0.259-0.319
									c-0.1-0.118-0.217-0.259-0.358-0.391c-0.141-0.132-0.297-0.273-0.465-0.414c-0.085-0.071-0.175-0.142-0.264-0.212
									c-0.048-0.033-0.094-0.066-0.142-0.104c-0.052-0.033-0.104-0.061-0.155-0.094c-0.202-0.127-0.423-0.254-0.653-0.362
									c-0.113-0.056-0.23-0.108-0.354-0.155c-0.117-0.047-0.249-0.084-0.376-0.122c-0.259-0.075-0.513-0.127-0.763-0.16
									c-0.122-0.014-0.244-0.028-0.366-0.038c-0.122-0.005-0.246-0.005-0.362-0.005c-0.471,0.009-0.899,0.071-1.257,0.146
									c-0.357,0.081-0.663,0.188-0.866,0.264c-0.206,0.08-0.318,0.136-0.318,0.136s0.079,0.08,0.234,0.207
									c0.156,0.118,0.367,0.306,0.645,0.494c0.137,0.099,0.292,0.193,0.461,0.292c0.165,0.103,0.339,0.207,0.531,0.306
									c0.188,0.099,0.396,0.188,0.616,0.278C55.755,21.949,55.98,22.034,56.22,22.104z"/>
								<path fill="#FFDD88" d="M60.482,18.025c0.095,0.288,0.169,0.56,0.212,0.838c0.048,0.277,0.07,0.55,0.08,0.804
									c0.014,0.258,0.009,0.498-0.005,0.729c-0.015,0.226-0.048,0.447-0.075,0.64c-0.07,0.396-0.155,0.715-0.226,0.936
									c-0.065,0.216-0.117,0.338-0.117,0.338s-0.095-0.099-0.236-0.277c-0.074-0.09-0.159-0.197-0.249-0.33
									c-0.094-0.126-0.192-0.277-0.306-0.438c-0.112-0.159-0.23-0.338-0.344-0.531c-0.061-0.094-0.118-0.193-0.174-0.301
									c-0.029-0.051-0.057-0.103-0.085-0.155c-0.027-0.056-0.061-0.108-0.089-0.16c-0.118-0.221-0.236-0.452-0.339-0.697
									c-0.057-0.122-0.104-0.249-0.155-0.381c-0.048-0.127-0.099-0.254-0.146-0.39c-0.09-0.264-0.165-0.532-0.231-0.8
									c-0.028-0.132-0.056-0.264-0.08-0.396c-0.027-0.127-0.052-0.254-0.075-0.381c-0.089-0.499-0.132-0.969-0.154-1.383
									c-0.019-0.409-0.029-0.743-0.024-0.983c0.006-0.24,0.02-0.376,0.02-0.376s0.122,0.085,0.329,0.24
									c0.207,0.155,0.479,0.41,0.786,0.725c0.155,0.16,0.314,0.338,0.475,0.527c0.155,0.197,0.311,0.418,0.461,0.645
									c0.146,0.231,0.292,0.475,0.423,0.734C60.281,17.466,60.394,17.738,60.482,18.025z"/>
							</g>
							<g>
								<path fill="#FFDD88" d="M52.07,18.542c0.499,0.038,0.993,0.02,1.458-0.037c0.461-0.047,0.891-0.118,1.267-0.203
									c0.371-0.08,0.688-0.174,0.898-0.235c0.217-0.061,0.343-0.108,0.343-0.108s-0.022-0.024-0.07-0.066
									c-0.042-0.042-0.104-0.107-0.192-0.178c-0.179-0.146-0.438-0.344-0.763-0.551c-0.649-0.414-1.599-0.833-2.667-0.904
									c-0.259-0.022-0.527-0.004-0.776,0.021c-0.249,0.028-0.489,0.064-0.72,0.117c-0.113,0.028-0.221,0.057-0.33,0.09
									c-0.107,0.033-0.211,0.07-0.311,0.107c-0.202,0.071-0.385,0.151-0.554,0.231c-0.335,0.16-0.604,0.319-0.782,0.442
									c-0.089,0.057-0.164,0.108-0.211,0.146c-0.047,0.038-0.071,0.057-0.071,0.057s0.099,0.057,0.269,0.155
									c0.174,0.094,0.424,0.216,0.738,0.334c0.16,0.057,0.325,0.132,0.509,0.193c0.184,0.062,0.376,0.118,0.589,0.169
									c0.051,0.01,0.107,0.023,0.159,0.033c0.052,0.015,0.107,0.029,0.159,0.042c0.109,0.023,0.222,0.047,0.335,0.066
									C51.576,18.501,51.821,18.529,52.07,18.542z"/>
								<path fill="#FFDD88" d="M55.346,13.617c0.3,0.522,0.503,1.049,0.644,1.538c0.128,0.499,0.184,0.965,0.208,1.36
									c0.022,0.4,0.014,0.72-0.01,0.955c-0.023,0.231-0.048,0.362-0.048,0.362s-0.027-0.019-0.075-0.056
									c-0.051-0.038-0.117-0.099-0.212-0.166c-0.178-0.141-0.433-0.348-0.71-0.62c-0.568-0.537-1.275-1.289-1.862-2.259
									c-0.141-0.249-0.278-0.484-0.399-0.729c-0.118-0.24-0.228-0.485-0.32-0.72c-0.048-0.122-0.09-0.24-0.132-0.353
									c-0.048-0.113-0.085-0.226-0.122-0.334c-0.081-0.222-0.147-0.429-0.198-0.626c-0.112-0.39-0.188-0.729-0.235-0.964
									c-0.023-0.117-0.038-0.211-0.052-0.272c-0.009-0.066-0.014-0.099-0.014-0.099s0.037,0.014,0.099,0.037
									c0.065,0.029,0.16,0.071,0.273,0.132c0.234,0.113,0.559,0.292,0.931,0.526c0.184,0.114,0.372,0.264,0.569,0.419
									c0.197,0.156,0.395,0.329,0.593,0.518c0.052,0.047,0.099,0.094,0.151,0.146c0.047,0.047,0.093,0.099,0.141,0.155
									c0.095,0.103,0.188,0.211,0.277,0.329C55.021,13.123,55.194,13.363,55.346,13.617z"/>
							</g>
							<path fill="#FFDD88" d="M49.06,11.542c0.259,0.151,0.494,0.311,0.716,0.48c0.107,0.085,0.211,0.175,0.31,0.264
								c0.1,0.094,0.193,0.188,0.277,0.277c0.358,0.372,0.635,0.739,0.848,1.072c0.211,0.344,0.357,0.64,0.451,0.847
								c0.095,0.217,0.132,0.339,0.132,0.339s-0.132-0.009-0.353-0.047c-0.112-0.023-0.249-0.047-0.404-0.084
								c-0.155-0.029-0.33-0.061-0.519-0.108c-0.376-0.09-0.809-0.23-1.273-0.386c-0.231-0.085-0.472-0.179-0.712-0.296
								c-0.061-0.028-0.122-0.057-0.184-0.085c-0.061-0.028-0.122-0.057-0.183-0.084c-0.122-0.061-0.245-0.127-0.367-0.192
								c-0.244-0.137-0.48-0.288-0.701-0.443c-0.222-0.16-0.433-0.306-0.631-0.466c-0.395-0.31-0.742-0.639-1.029-0.926
								c-0.287-0.278-0.518-0.527-0.673-0.71c-0.155-0.179-0.235-0.292-0.235-0.292s0.146-0.023,0.405-0.042
								c0.131-0.009,0.286-0.02,0.465-0.023c0.179-0.005,0.381,0.009,0.603,0.023c0.217,0.014,0.451,0.042,0.701,0.076
								c0.122,0.019,0.249,0.037,0.376,0.065c0.128,0.028,0.259,0.061,0.391,0.094C47.997,11.039,48.547,11.232,49.06,11.542z"/>
						</g>
					</g>
					<polygon fill="#FFDD88" points="36.226,5.582 37.241,8.499 40.333,8.564 37.867,10.432 38.761,13.392 36.226,11.623 
						33.69,13.392 34.584,10.432 32.118,8.564 35.21,8.499 					"/>
				</g>
			</g>
			<g>
				<g>
					<path fill="#FFFFFF" d="M39.36,63.014c0,0.493-0.104,0.947-0.313,1.357c-0.208,0.41-0.499,0.758-0.871,1.044
						c-0.371,0.287-0.808,0.507-1.312,0.664c-0.502,0.155-1.041,0.233-1.612,0.233c-0.836,0-1.59-0.222-2.263-0.664
						c-0.674-0.441-1.166-1.054-1.476-1.834l-2.809-7.03c-0.062-0.324-0.239-0.488-0.533-0.488c-0.496,0-0.743,0.261-0.743,0.781
						v9.354h-3.412v-9.589c0-0.493,0.105-0.946,0.313-1.356c0.209-0.411,0.499-0.758,0.87-1.045
						c0.372-0.286,0.809-0.508,1.313-0.664c0.502-0.155,1.041-0.235,1.612-0.235c0.82,0,1.574,0.224,2.264,0.665
						c0.688,0.441,1.181,1.054,1.475,1.835h-0.024l2.832,7.031c0.063,0.325,0.24,0.487,0.534,0.487c0.495,0,0.743-0.261,0.743-0.78
						v-9.354h3.412V63.014z"/>
				</g>
				<g>
					<path fill="#FFFFFF" d="M45.184,66.292v-5.097h-6.058v2.568h-3.25v-10.32h3.25v5.019h6.058v-5.019h3.25v12.849H45.184z"/>
				</g>
			</g>
		</g>
	</g>
	<g>
		<path fill="#DD3333" d="M86.765,48.435L83.39,29.713h3.536l2.011,12.712l1.872-12.712h3.744l-3.421,18.721H86.765z"/>
		<path fill="#DD3333" d="M94.808,48.435l3.536-18.721h4.715l3.49,18.721h-3.813l-0.624-3.952h-2.75l-0.647,3.952H94.808z
			 M100.701,28.211c-1.094,0-1.972-0.308-2.635-0.925c-0.663-0.616-0.994-1.51-0.994-2.681h2.126c0,0.57,0.111,0.994,0.335,1.271
			c0.223,0.277,0.612,0.416,1.167,0.416c0.539,0,0.925-0.143,1.156-0.428c0.231-0.285,0.347-0.705,0.347-1.26h2.126
			c0,1.171-0.332,2.065-0.994,2.681C102.673,27.903,101.795,28.211,100.701,28.211z M99.73,42.01h1.988l-0.994-7.304L99.73,42.01z"
			/>
		<path fill="#DD3333" d="M108.259,48.435V29.713h2.912l3.837,9.014v-9.014h3.42v18.721h-2.796l-3.837-9.707v9.707H108.259z"/>
		<path fill="#DD3333" d="M127.142,48.435V29.713h6.287c1.125,0,2.049,0.212,2.773,0.636c0.724,0.424,1.263,1.04,1.618,1.849
			c0.354,0.809,0.532,1.791,0.532,2.947c0,1.448-0.239,2.554-0.716,3.317c-0.478,0.763-1.125,1.29-1.941,1.583
			c-0.817,0.293-1.733,0.439-2.75,0.439h-1.664v7.95H127.142z M131.279,37.595h1.387c0.508,0,0.894-0.092,1.156-0.277
			c0.262-0.185,0.435-0.462,0.52-0.832c0.084-0.37,0.127-0.839,0.127-1.41c0-0.478-0.035-0.897-0.104-1.26
			c-0.069-0.362-0.235-0.651-0.497-0.867c-0.262-0.215-0.67-0.324-1.225-0.324h-1.364V37.595z"/>
		<path fill="#DD3333" d="M140.223,48.435V29.713h4.137v7.581h2.889v-7.581h4.16v18.721h-4.16v-8.182h-2.889v8.182H140.223z"/>
		<path fill="#DD3333" d="M159.614,48.712c-1.402,0-2.512-0.247-3.329-0.739c-0.817-0.493-1.402-1.202-1.756-2.127
			c-0.354-0.924-0.532-2.025-0.532-3.305v-6.957c0-1.294,0.177-2.396,0.532-3.305c0.354-0.909,0.939-1.606,1.756-2.091
			s1.926-0.728,3.329-0.728c1.417,0,2.538,0.243,3.363,0.728c0.824,0.485,1.413,1.183,1.768,2.091
			c0.354,0.91,0.531,2.011,0.531,3.305v6.957c0,1.279-0.177,2.381-0.531,3.305c-0.355,0.925-0.944,1.634-1.768,2.127
			C162.152,48.465,161.032,48.712,159.614,48.712z M158.528,28.234l-2.936-4.646h3.883l1.41,4.646H158.528z M159.614,45.776
			c0.431,0,0.747-0.107,0.947-0.323s0.331-0.493,0.393-0.832c0.062-0.339,0.092-0.686,0.092-1.04v-9.014
			c0-0.37-0.031-0.72-0.092-1.051c-0.062-0.331-0.193-0.604-0.393-0.821c-0.2-0.215-0.516-0.323-0.947-0.323
			c-0.401,0-0.702,0.108-0.901,0.323c-0.201,0.216-0.332,0.49-0.393,0.821c-0.062,0.332-0.092,0.682-0.092,1.051v9.014
			c0,0.354,0.026,0.701,0.081,1.04c0.054,0.339,0.177,0.616,0.37,0.832C158.871,45.669,159.183,45.776,159.614,45.776z"/>
		<path fill="#DD3333" d="M167.796,48.435V29.713h2.912l3.837,9.014v-9.014h3.42v18.721h-2.796l-3.837-9.707v9.707H167.796z"/>
		<path fill="#DD3333" d="M185.639,48.712c-1.294,0-2.315-0.27-3.063-0.809c-0.748-0.539-1.279-1.298-1.595-2.277
			c-0.316-0.978-0.474-2.106-0.474-3.386v-6.286c0-1.325,0.169-2.473,0.509-3.444c0.338-0.971,0.92-1.722,1.745-2.253
			c0.824-0.532,1.945-0.797,3.363-0.797c1.387,0,2.477,0.231,3.27,0.693c0.793,0.462,1.36,1.102,1.699,1.918
			c0.339,0.817,0.509,1.772,0.509,2.866v1.202h-4.045v-1.525c0-0.4-0.027-0.77-0.081-1.109c-0.054-0.339-0.178-0.612-0.37-0.82
			c-0.193-0.208-0.505-0.312-0.936-0.312c-0.447,0-0.771,0.12-0.971,0.358c-0.2,0.239-0.328,0.536-0.381,0.89
			c-0.054,0.354-0.081,0.724-0.081,1.109v8.667c0,0.416,0.042,0.805,0.127,1.167c0.084,0.362,0.239,0.655,0.462,0.878
			c0.223,0.224,0.543,0.335,0.959,0.335c0.431,0,0.763-0.115,0.994-0.347c0.231-0.23,0.393-0.531,0.485-0.901
			c0.093-0.369,0.139-0.763,0.139-1.179v-2.195h-1.687v-2.427h5.408v9.707h-2.727l-0.231-1.549
			c-0.247,0.524-0.609,0.959-1.086,1.306C187.102,48.539,186.455,48.712,185.639,48.712z"/>
		<path fill="#DD3333" d="M205.492,48.712c-1.418,0-2.539-0.258-3.363-0.774c-0.824-0.516-1.406-1.24-1.745-2.173
			c-0.339-0.932-0.509-2.029-0.509-3.293v-6.749c0-1.294,0.169-2.407,0.509-3.34c0.338-0.932,0.92-1.652,1.745-2.161
			c0.824-0.509,1.945-0.763,3.363-0.763c1.387,0,2.469,0.228,3.247,0.682c0.778,0.455,1.329,1.09,1.652,1.907
			c0.324,0.817,0.485,1.756,0.485,2.82v1.618h-4.044v-1.872c0-0.37-0.02-0.724-0.058-1.063c-0.039-0.339-0.15-0.62-0.335-0.844
			c-0.185-0.223-0.501-0.335-0.947-0.335c-0.432,0-0.751,0.115-0.959,0.347c-0.208,0.231-0.339,0.52-0.393,0.867
			c-0.054,0.347-0.081,0.713-0.081,1.098v8.806c0,0.416,0.035,0.798,0.104,1.145s0.208,0.624,0.416,0.832s0.512,0.312,0.913,0.312
			c0.431,0,0.739-0.111,0.924-0.335c0.185-0.223,0.3-0.512,0.347-0.866s0.069-0.717,0.069-1.087v-1.964h4.044v1.617
			c0,1.063-0.158,2.015-0.474,2.854s-0.863,1.502-1.641,1.987C207.984,48.47,206.894,48.712,205.492,48.712z"/>
		<path fill="#DD3333" d="M218.504,48.712c-1.402,0-2.512-0.247-3.329-0.739c-0.817-0.493-1.402-1.202-1.756-2.127
			c-0.354-0.924-0.532-2.025-0.532-3.305v-6.957c0-1.294,0.177-2.396,0.532-3.305c0.354-0.909,0.939-1.606,1.756-2.091
			s1.926-0.728,3.329-0.728c1.417,0,2.538,0.243,3.363,0.728c0.824,0.485,1.413,1.183,1.768,2.091
			c0.354,0.91,0.531,2.011,0.531,3.305v6.957c0,1.279-0.177,2.381-0.531,3.305c-0.355,0.925-0.944,1.634-1.768,2.127
			C221.042,48.465,219.921,48.712,218.504,48.712z M214.759,28.073l2.196-4.438h3.074l2.265,4.438h-2.773l-1.017-2.75l-0.994,2.75
			H214.759z M218.504,45.776c0.431,0,0.747-0.107,0.947-0.323s0.331-0.493,0.393-0.832c0.062-0.339,0.092-0.686,0.092-1.04v-9.014
			c0-0.37-0.031-0.72-0.092-1.051c-0.062-0.331-0.193-0.604-0.393-0.821c-0.2-0.215-0.516-0.323-0.947-0.323
			c-0.401,0-0.702,0.108-0.901,0.323c-0.201,0.216-0.332,0.49-0.393,0.821c-0.062,0.332-0.092,0.682-0.092,1.051v9.014
			c0,0.354,0.026,0.701,0.081,1.04c0.054,0.339,0.177,0.616,0.37,0.832C217.76,45.669,218.072,45.776,218.504,45.776z"/>
		<path fill="#DD3333" d="M226.686,48.435V29.713h2.912l3.837,9.014v-9.014h3.421v18.721h-2.797l-3.837-9.707v9.707H226.686z"/>
		<path fill="#DD3333" d="M244.528,48.712c-1.295,0-2.315-0.27-3.063-0.809c-0.748-0.539-1.279-1.298-1.595-2.277
			c-0.316-0.978-0.474-2.106-0.474-3.386v-6.286c0-1.325,0.169-2.473,0.508-3.444s0.921-1.722,1.745-2.253
			c0.824-0.532,1.945-0.797,3.363-0.797c1.387,0,2.477,0.231,3.271,0.693c0.793,0.462,1.359,1.102,1.698,1.918
			c0.339,0.817,0.509,1.772,0.509,2.866v1.202h-4.045v-1.525c0-0.4-0.027-0.77-0.081-1.109c-0.054-0.339-0.177-0.612-0.369-0.82
			c-0.193-0.208-0.505-0.312-0.937-0.312c-0.447,0-0.771,0.12-0.971,0.358c-0.2,0.239-0.327,0.536-0.381,0.89
			c-0.055,0.354-0.081,0.724-0.081,1.109v8.667c0,0.416,0.042,0.805,0.127,1.167c0.084,0.362,0.238,0.655,0.462,0.878
			c0.224,0.224,0.543,0.335,0.959,0.335c0.432,0,0.763-0.115,0.994-0.347c0.231-0.23,0.393-0.531,0.485-0.901
			c0.093-0.369,0.139-0.763,0.139-1.179v-2.195h-1.688v-2.427h5.409v9.707h-2.728l-0.231-1.549
			c-0.246,0.524-0.608,0.959-1.086,1.306C245.992,48.539,245.345,48.712,244.528,48.712z"/>
		<path fill="#DD3333" d="M264.381,48.712c-1.418,0-2.539-0.258-3.363-0.774c-0.824-0.516-1.406-1.24-1.745-2.173
			c-0.339-0.932-0.508-2.029-0.508-3.293v-6.749c0-1.294,0.169-2.407,0.508-3.34c0.339-0.932,0.921-1.652,1.745-2.161
			c0.824-0.509,1.945-0.763,3.363-0.763c1.387,0,2.469,0.228,3.247,0.682c0.778,0.455,1.329,1.09,1.652,1.907
			c0.324,0.817,0.485,1.756,0.485,2.82v1.618h-4.045v-1.872c0-0.37-0.019-0.724-0.058-1.063c-0.038-0.339-0.15-0.62-0.335-0.844
			c-0.185-0.223-0.501-0.335-0.947-0.335c-0.432,0-0.751,0.115-0.959,0.347c-0.208,0.231-0.34,0.52-0.394,0.867
			s-0.081,0.713-0.081,1.098v8.806c0,0.416,0.035,0.798,0.104,1.145s0.208,0.624,0.416,0.832s0.512,0.312,0.913,0.312
			c0.431,0,0.739-0.111,0.924-0.335c0.186-0.223,0.301-0.512,0.347-0.866c0.047-0.354,0.069-0.717,0.069-1.087v-1.964h4.045v1.617
			c0,1.063-0.158,2.015-0.474,2.854c-0.316,0.84-0.863,1.502-1.641,1.987C266.873,48.47,265.782,48.712,264.381,48.712z"/>
		<path fill="#DD3333" d="M272.101,48.435V29.713h4.137v7.581h2.89v-7.581h4.16v18.721h-4.16v-8.182h-2.89v8.182H272.101z"/>
		<path fill="#DD3333" d="M291.537,48.712c-1.433,0-2.554-0.235-3.362-0.705c-0.81-0.47-1.376-1.155-1.699-2.057
			s-0.485-2.007-0.485-3.316v-12.92h4.091v13.544c0,0.385,0.031,0.771,0.093,1.155s0.196,0.701,0.404,0.947
			c0.208,0.247,0.527,0.37,0.959,0.37c0.447,0,0.771-0.123,0.971-0.37c0.2-0.246,0.327-0.563,0.382-0.947
			c0.054-0.385,0.08-0.771,0.08-1.155V29.713h4.114v12.92c0,1.31-0.166,2.415-0.497,3.316s-0.897,1.587-1.698,2.057
			C294.087,48.477,292.97,48.712,291.537,48.712z M290.289,28.234l1.456-4.646h3.837l-2.912,4.646H290.289z M294.565,31.216v-1.502
			h0.23c0.463,0,0.786-0.165,0.971-0.497c0.186-0.332,0.277-0.828,0.277-1.491h2.635c0,1.171-0.362,2.045-1.086,2.623
			c-0.725,0.578-1.656,0.867-2.797,0.867H294.565z"/>
		<path fill="#DD3333" d="M299.719,48.435V29.713h2.912l3.837,9.014v-9.014h3.421v18.721h-2.797l-3.837-9.707v9.707H299.719z"/>
		<path fill="#DD3333" d="M317.562,48.712c-1.295,0-2.315-0.27-3.063-0.809c-0.748-0.539-1.279-1.298-1.595-2.277
			c-0.316-0.978-0.474-2.106-0.474-3.386v-6.286c0-1.325,0.169-2.473,0.508-3.444s0.921-1.722,1.745-2.253
			c0.824-0.532,1.945-0.797,3.363-0.797c1.387,0,2.477,0.231,3.271,0.693c0.793,0.462,1.359,1.102,1.698,1.918
			c0.339,0.817,0.509,1.772,0.509,2.866v1.202h-4.045v-1.525c0-0.4-0.027-0.77-0.081-1.109c-0.054-0.339-0.177-0.612-0.369-0.82
			c-0.193-0.208-0.505-0.312-0.937-0.312c-0.447,0-0.771,0.12-0.971,0.358c-0.2,0.239-0.327,0.536-0.381,0.89
			c-0.055,0.354-0.081,0.724-0.081,1.109v8.667c0,0.416,0.042,0.805,0.127,1.167c0.084,0.362,0.238,0.655,0.462,0.878
			c0.224,0.224,0.543,0.335,0.959,0.335c0.432,0,0.763-0.115,0.994-0.347c0.231-0.23,0.393-0.531,0.485-0.901
			c0.093-0.369,0.139-0.763,0.139-1.179v-2.195h-1.688v-2.427h5.409v9.707h-2.728l-0.231-1.549
			c-0.246,0.524-0.608,0.959-1.086,1.306C319.025,48.539,318.378,48.712,317.562,48.712z"/>
		<path fill="#DD3333" d="M332.053,48.435V29.713h2.912l3.837,9.014v-9.014h3.421v18.721h-2.797l-3.837-9.707v9.707H332.053z"/>
		<path fill="#DD3333" d="M349.896,48.712c-1.295,0-2.315-0.27-3.063-0.809c-0.748-0.539-1.279-1.298-1.595-2.277
			c-0.316-0.978-0.474-2.106-0.474-3.386v-6.286c0-1.325,0.169-2.473,0.508-3.444s0.921-1.722,1.745-2.253
			c0.824-0.532,1.945-0.797,3.363-0.797c1.387,0,2.477,0.231,3.271,0.693c0.793,0.462,1.359,1.102,1.698,1.918
			c0.339,0.817,0.509,1.772,0.509,2.866v1.202h-4.045v-1.525c0-0.4-0.027-0.77-0.081-1.109c-0.054-0.339-0.177-0.612-0.369-0.82
			c-0.193-0.208-0.505-0.312-0.937-0.312c-0.447,0-0.771,0.12-0.971,0.358c-0.2,0.239-0.327,0.536-0.381,0.89
			c-0.055,0.354-0.081,0.724-0.081,1.109v8.667c0,0.416,0.042,0.805,0.127,1.167c0.084,0.362,0.238,0.655,0.462,0.878
			c0.224,0.224,0.543,0.335,0.959,0.335c0.432,0,0.763-0.115,0.994-0.347c0.231-0.23,0.393-0.531,0.485-0.901
			c0.093-0.369,0.139-0.763,0.139-1.179v-2.195h-1.688v-2.427h5.409v9.707h-2.728l-0.231-1.549
			c-0.246,0.524-0.608,0.959-1.086,1.306C351.359,48.539,350.712,48.712,349.896,48.712z"/>
		<path fill="#DD3333" d="M363.878,48.712c-1.433,0-2.554-0.235-3.362-0.705c-0.81-0.47-1.376-1.155-1.699-2.057
			s-0.485-2.007-0.485-3.316v-12.92h4.091v13.544c0,0.385,0.031,0.771,0.093,1.155s0.196,0.701,0.404,0.947
			c0.208,0.247,0.527,0.37,0.959,0.37c0.447,0,0.771-0.123,0.971-0.37c0.2-0.246,0.327-0.563,0.382-0.947
			c0.054-0.385,0.08-0.771,0.08-1.155V29.713h4.114v12.92c0,1.31-0.166,2.415-0.497,3.316s-0.897,1.587-1.698,2.057
			C366.428,48.477,365.311,48.712,363.878,48.712z"/>
		<path fill="#DD3333" d="M374.417,48.435v-7.65l-3.56-11.071h3.906l1.779,5.917l1.595-5.917h3.745l-3.49,11.071v7.65H374.417z"/>
		<path fill="#DD3333" d="M383.27,48.435V29.713h8.413v2.82h-4.276v4.646h3.259v2.866h-3.259v5.593h4.322v2.797H383.27z
			 M383.755,28.073l2.195-3.86h3.074l2.266,3.86h-2.682l-1.109-2.312l-1.086,2.312H383.755z M389.395,23.08
			c-0.386,0-0.74-0.092-1.063-0.277c-0.323-0.185-0.632-0.366-0.925-0.543c-0.292-0.177-0.593-0.266-0.901-0.266
			c-0.339,0-0.563,0.096-0.67,0.289c-0.107,0.193-0.162,0.413-0.162,0.659h-1.803c0-0.631,0.062-1.194,0.186-1.687
			c0.123-0.493,0.339-0.882,0.646-1.167c0.309-0.285,0.725-0.428,1.248-0.428c0.386,0,0.729,0.085,1.029,0.254
			c0.3,0.169,0.597,0.339,0.89,0.508c0.292,0.17,0.601,0.254,0.924,0.254c0.263,0,0.447-0.084,0.555-0.254
			c0.108-0.169,0.162-0.377,0.162-0.624h1.664c0,0.493-0.034,0.994-0.104,1.502c-0.069,0.508-0.231,0.932-0.485,1.271
			C390.33,22.911,389.934,23.08,389.395,23.08z"/>
		<path fill="#DD3333" d="M393.601,48.435V29.713h2.912l3.837,9.014v-9.014h3.421v18.721h-2.797l-3.837-9.707v9.707H393.601z"/>
		<path fill="#DD3333" d="M412.552,48.435V29.713h4.137v7.581h2.89v-7.581h4.16v18.721h-4.16v-8.182h-2.89v8.182H412.552z"/>
		<path fill="#DD3333" d="M431.989,48.712c-1.433,0-2.554-0.235-3.362-0.705c-0.81-0.47-1.376-1.155-1.699-2.057
			s-0.485-2.007-0.485-3.316v-12.92h4.091v13.544c0,0.385,0.031,0.771,0.093,1.155s0.196,0.701,0.404,0.947
			c0.208,0.247,0.527,0.37,0.959,0.37c0.447,0,0.771-0.123,0.971-0.37c0.2-0.246,0.327-0.563,0.382-0.947
			c0.054-0.385,0.08-0.771,0.08-1.155V29.713h4.114v12.92c0,1.31-0.166,2.415-0.497,3.316s-0.897,1.587-1.698,2.057
			C434.539,48.477,433.422,48.712,431.989,48.712z"/>
		<path fill="#DD3333" d="M440.171,48.435V29.713h8.413v2.82h-4.276v4.646h3.259v2.866h-3.259v5.593h4.322v2.797H440.171z
			 M440.656,28.073l2.195-3.86h3.074l2.266,3.86h-2.682l-1.109-2.312l-1.086,2.312H440.656z M442.344,53.242v-3.189h3.235v3.189
			H442.344z"/>
	</g>
</g>
</svg>
